<?xml version="1.0" encoding="UTF-8"?>
<svg width="24px" height="24px" viewBox="0 0 24 24" version="1.1" xmlns="http://www.w3.org/2000/svg" xmlns:xlink="http://www.w3.org/1999/xlink">
    <!-- Generator: Sketch 54.1 (76490) - https://sketchapp.com -->
    <title>arrow-right</title>
    <desc>Created with Sketch.</desc>
    <defs>
        <path d="M17.5857864,11 L13.2928932,6.70710678 C12.9023689,6.31658249 12.9023689,5.68341751 13.2928932,5.29289322 C13.6834175,4.90236893 14.3165825,4.90236893 14.7071068,5.29289322 L20.7071068,11.2928932 C21.0976311,11.6834175 21.0976311,12.3165825 20.7071068,12.7071068 L14.7071068,18.7071068 C14.3165825,19.0976311 13.6834175,19.0976311 13.2928932,18.7071068 C12.9023689,18.3165825 12.9023689,17.6834175 13.2928932,17.2928932 L17.5857864,13 L4,13 C3.44771525,13 3,12.5522847 3,12 C3,11.4477153 3.44771525,11 4,11 L17.5857864,11 Z" id="path-1"></path>
    </defs>
    <g id="arrow-right" stroke="none" stroke-width="1" fill="none" fill-rule="evenodd">
        <mask id="mask-2" fill="white">
            <use xlink:href="#path-1"></use>
        </mask>
        <use id="Combined-Shape" fill="#000000" fill-rule="nonzero" xlink:href="#path-1"></use>
        <g id="COLOR/-black" mask="url(#mask-2)" fill="#28313B">
            <rect id="Rectangle" x="0" y="0" width="24" height="24"></rect>
        </g>
    </g>
</svg>