<?xml version="1.0" encoding="UTF-8"?>
<svg width="435px" height="80px" viewBox="0 0 435 80" version="1.1" xmlns="http://www.w3.org/2000/svg" xmlns:xlink="http://www.w3.org/1999/xlink">
    <!-- Generator: Sketch 54.1 (76490) - https://sketchapp.com -->
    <title>ICAM_logo_w_s</title>
    <desc>Created with Sketch.</desc>
    <defs>
        <path d="M26.7278071,2.74813953 C23.4499871,4.57953488 20.9342315,7.18325581 19.1826367,10.5582558 L19.1826367,10.5582558 C17.4299936,13.9332558 16.5547203,17.8440698 16.5547203,22.2896512 L16.5547203,22.2896512 C16.5547203,26.7352326 17.4299936,30.6460465 19.1826367,34.0210465 L19.1826367,34.0210465 C20.9342315,37.3960465 23.4499871,40.0102326 26.7278071,41.8625581 L26.7278071,41.8625581 C30.005627,43.7148837 33.849492,44.6410465 38.2625466,44.6410465 L38.2625466,44.6410465 C41.148328,44.6410465 43.910418,44.1983721 46.5488167,43.3140698 L46.5488167,43.3140698 C49.1872154,42.4287209 51.3528617,41.2043023 53.0426109,39.6397674 L53.0426109,39.6397674 L49.9513762,32.7861628 C48.0540772,34.2272093 46.1683087,35.2768605 44.290926,35.9351163 L44.290926,35.9351163 C42.4156399,36.5933721 40.4680257,36.9230233 38.4470354,36.9230233 L38.4470354,36.9230233 C34.5717235,36.9230233 31.5926495,35.6776744 29.5108617,33.1880233 L29.5108617,33.1880233 C27.429074,30.6973256 26.3871318,27.0648837 26.3871318,22.2896512 L26.3871318,22.2896512 C26.3871318,17.5144186 27.429074,13.8924419 29.5108617,11.4226744 L29.5108617,11.4226744 C31.5926495,8.95290698 34.5717235,7.71802326 38.4470354,7.71802326 L38.4470354,7.71802326 C40.4680257,7.71802326 42.4156399,8.04767442 44.290926,8.70593023 L44.290926,8.70593023 C46.1683087,9.36418605 48.0540772,10.4148837 49.9513762,11.8548837 L49.9513762,11.8548837 L53.0426109,5.00127907 C51.3528617,3.4377907 49.1872154,2.21337209 46.5488167,1.32697674 L46.5488167,1.32697674 C43.910418,0.442674419 41.148328,0 38.2625466,0 L38.2625466,0 C33.849492,0 30.005627,0.915697674 26.7278071,2.74813953 L26.7278071,2.74813953 Z M320.842701,44.0853488 L325.852199,44.0853488 L325.852199,0.556744186 L320.842701,0.556744186 L320.842701,44.0853488 Z M172.931994,0.555697674 L172.931994,44.0853488 L178.003338,44.0853488 L178.003338,26.2412791 L190.186932,26.2412791 C194.72263,26.2412791 198.267749,25.1089535 200.824386,22.8453488 L200.824386,22.8453488 C203.381023,20.5806977 204.658817,17.4118605 204.658817,13.3367442 L204.658817,13.3367442 C204.658817,9.26162791 203.391505,6.11267442 200.855833,3.88988372 L200.855833,3.88988372 C198.320161,1.66709302 194.764559,0.555697674 190.186932,0.555697674 L190.186932,0.555697674 L172.931994,0.555697674 Z M178.003338,4.75430233 L189.692167,4.75430233 C196.330617,4.75430233 199.649318,7.61546512 199.649318,13.3367442 L199.649318,13.3367442 C199.649318,19.1406977 196.330617,22.0426744 189.692167,22.0426744 L189.692167,22.0426744 L178.003338,22.0426744 L178.003338,4.75430233 Z M140.327801,0.555697674 L126.288836,27.1674419 L112.249871,0.555697674 L104.642855,0.555697674 L104.642855,44.0853488 L113.115711,44.0853488 L113.115711,18.5232558 L123.134707,36.9230233 L129.319273,36.9230233 L139.33827,18.2762791 L139.33827,44.0853488 L147.811125,44.0853488 L147.811125,0.555697674 L140.327801,0.555697674 Z M73.617299,0.555697674 L53.5793055,44.0853488 L63.289074,44.0853488 L67.4327331,34.4532558 L87.7170611,34.4532558 L91.8617685,44.0853488 L101.386,44.0853488 L81.3480064,0.555697674 L73.617299,0.555697674 Z M77.574373,10.8669767 L84.5639807,27.1674419 L70.5858135,27.1674419 L77.574373,10.8669767 Z M0,44.0853488 L9.6468746,44.0853488 L9.6468746,0.556744186 L0,0.556744186 L0,44.0853488 Z M269.75609,4.8777907 L269.75609,14.0159302 L263.879704,14.0159302 L263.879704,17.9675581 L269.75609,17.9675581 L269.75609,33.7740698 C269.75609,37.1490698 270.673293,39.784186 272.507698,41.6773256 L272.507698,41.6773256 C274.342103,43.5704651 277.074842,44.5175581 280.702772,44.5175581 L280.702772,44.5175581 C281.814945,44.5175581 282.846405,44.4359302 283.795055,44.2705814 L283.795055,44.2705814 L284.042437,40.3189535 C283.134669,40.4424419 282.227949,40.504186 281.321228,40.504186 L281.321228,40.504186 C276.950103,40.504186 274.765588,38.1369767 274.765588,33.4036047 L274.765588,33.4036047 L274.765588,17.9675581 L283.300289,17.9675581 L283.300289,14.0159302 L274.765588,14.0159302 L274.765588,4.8777907 L269.75609,4.8777907 Z M294.433556,14.2943023 C292.228077,14.9734884 290.34126,15.8682558 288.775203,16.9796512 L288.775203,16.9796512 L290.445035,20.6225581 C293.866463,18.4824419 297.309904,17.4118605 300.77326,17.4118605 L300.77326,17.4118605 C303.081466,17.4118605 304.751299,17.9780233 305.782759,19.1093023 L305.782759,19.1093023 C306.81317,20.2416279 307.3289,22.0636047 307.3289,24.574186 L307.3289,24.574186 L307.3289,26.6117442 L305.967248,26.6117442 C301.266977,26.6117442 297.598167,26.8901163 294.959768,27.4447674 L294.959768,27.4447674 C292.32137,28.0015116 290.424071,28.9056977 289.26892,30.1615116 L289.26892,30.1615116 C288.114817,31.4173256 287.538289,33.1775581 287.538289,35.4411628 L287.538289,35.4411628 C287.538289,37.1281395 288.011042,38.6727907 288.96074,40.0719767 L288.96074,40.0719767 C289.908341,41.4711628 291.197666,42.5626744 292.825569,43.3444186 L292.825569,43.3444186 C294.454521,44.1261628 296.237563,44.5175581 298.174695,44.5175581 L298.174695,44.5175581 C300.277447,44.5175581 302.133865,44.0340698 303.740804,43.067093 L303.740804,43.067093 C305.349839,42.1001163 306.544823,40.7302326 307.3289,38.9605814 L307.3289,38.9605814 L307.3289,44.0853488 L312.214707,44.0853488 L312.214707,25.1298837 C312.214707,21.1363953 311.275492,18.1632558 309.400206,16.2083721 L309.400206,16.2083721 C307.523871,14.2524419 304.669537,13.275 300.834058,13.275 L300.834058,13.275 C298.773235,13.275 296.640084,13.6151163 294.433556,14.2943023 L294.433556,14.2943023 Z M294.433556,38.9919767 C293.258489,37.9412791 292.671479,36.6143023 292.671479,35.0089535 L292.671479,35.0089535 C292.671479,33.6097674 293.072952,32.5496512 293.876945,31.8286047 L293.876945,31.8286047 C294.680939,31.1096512 296.031061,30.5937209 297.927312,30.2860465 L297.927312,30.2860465 C299.824611,29.9773256 302.586701,29.8224419 306.215678,29.8224419 L306.215678,29.8224419 L307.3289,29.8224419 L307.3289,31.6130233 C307.3289,34.247093 306.534341,36.3987209 304.947318,38.065814 L304.947318,38.065814 C303.360296,39.732907 301.329871,40.5659302 298.856045,40.5659302 L298.856045,40.5659302 C297.082437,40.5659302 295.608624,40.0405814 294.433556,38.9919767 L294.433556,38.9919767 Z M258.161601,13.3984884 C253.213949,13.8097674 249.895248,15.7656977 248.20445,19.264186 L248.20445,19.264186 L248.20445,14.0159302 L243.318643,14.0159302 L243.318643,44.0853488 L248.328141,44.0853488 L248.328141,26.9204651 C248.328141,24.4915116 249.018926,22.4539535 250.399447,20.8077907 L250.399447,20.8077907 C251.781016,19.1616279 254.017942,18.1946512 257.110225,17.905814 L257.110225,17.905814 L260.388045,17.597093 L259.954077,13.275 L258.161601,13.3984884 Z M215.545749,15.1890698 C213.380103,16.4647674 211.71027,18.2867442 210.536251,20.6539535 L210.536251,20.6539535 C209.360135,23.0201163 208.773125,25.7682558 208.773125,28.8962791 L208.773125,28.8962791 C208.773125,32.0243023 209.360135,34.7724419 210.536251,37.1386047 L210.536251,37.1386047 C211.71027,39.505814 213.380103,41.3277907 215.545749,42.6034884 L215.545749,42.6034884 C217.709299,43.8802326 220.214572,44.5175581 223.059473,44.5175581 L223.059473,44.5175581 C225.904373,44.5175581 228.41908,43.8802326 230.604643,42.6034884 L230.604643,42.6034884 C232.790206,41.3277907 234.470521,39.505814 235.64454,37.1386047 L235.64454,37.1386047 C236.820656,34.7724419 237.407666,32.0243023 237.407666,28.8962791 L237.407666,28.8962791 C237.407666,25.7682558 236.820656,23.0201163 235.64454,20.6539535 L235.64454,20.6539535 C234.470521,18.2867442 232.790206,16.4647674 230.604643,15.1890698 L230.604643,15.1890698 C228.41908,13.9123256 225.904373,13.275 223.059473,13.275 L223.059473,13.275 C220.214572,13.275 217.709299,13.9123256 215.545749,15.1890698 L215.545749,15.1890698 Z M216.226051,37.4169767 C214.637981,35.4411628 213.844469,32.6009302 213.844469,28.8962791 L213.844469,28.8962791 C213.844469,25.2324419 214.648463,22.4026744 216.25645,20.4069767 L216.25645,20.4069767 C217.864437,18.4102326 220.13281,17.4118605 223.059473,17.4118605 L223.059473,17.4118605 C225.987183,17.4118605 228.254508,18.4102326 229.862495,20.4069767 L229.862495,20.4069767 C231.470482,22.4026744 232.274476,25.2324419 232.274476,28.8962791 L232.274476,28.8962791 C232.274476,32.6427907 231.480965,35.4924419 229.893942,37.4483721 L229.893942,37.4483721 C228.305871,39.4032558 226.028064,40.3806977 223.059473,40.3806977 L223.059473,40.3806977 C220.090881,40.3806977 217.812026,39.3927907 216.226051,37.4169767 L216.226051,37.4169767 Z" id="path-1"></path>
        <path d="M23.2029819,0.450727969 L1.12578467,13.4371009 C0.292330827,13.9268327 0.00829307311,15.0091188 0.49343785,15.8528991 L0.49343785,15.8528991 C0.644786434,16.1189655 0.864552872,16.3415709 1.12578467,16.4952746 L1.12578467,16.4952746 L23.2029819,29.4805875 C23.7441049,29.7985951 24.4116973,29.7985951 24.9548936,29.4805875 L24.9548936,29.4805875 L47.0300176,16.4952746 C47.8624348,16.0066028 48.1475092,14.9232567 47.6644377,14.0794764 L47.6644377,14.0794764 C47.5110158,13.81341 47.2933227,13.5908046 47.0300176,13.4371009 L47.0300176,13.4371009 L24.9548936,0.450727969 C24.6822588,0.292784163 24.3805983,0.213282248 24.0789378,0.213282248 L24.0789378,0.213282248 C23.775204,0.213282248 23.4725068,0.292784163 23.2029819,0.450727969 L23.2029819,0.450727969 Z M23.6414782,24.6288506 L8.51387618,15.7320562 C8.09714926,15.4850702 7.95513038,14.9444572 8.1956295,14.522567 L8.1956295,14.522567 C8.27234043,14.3890038 8.38118701,14.2798212 8.51387618,14.2013793 L8.51387618,14.2013793 L23.6414782,5.30458493 C23.911003,5.14452107 24.2447992,5.14452107 24.5163974,5.30458493 L24.5163974,5.30458493 L39.6439994,14.2013793 C40.0607263,14.4473052 40.2027452,14.9879183 39.9601728,15.4098084 L39.9601728,15.4098084 C39.8834618,15.5433716 39.7735786,15.6525543 39.6439994,15.7320562 L39.6439994,15.7320562 L24.5163974,24.6288506 C24.3805983,24.7094125 24.2292497,24.7496935 24.0789378,24.7496935 L24.0789378,24.7496935 C23.9275892,24.7496935 23.7762406,24.7094125 23.6414782,24.6288506 L23.6414782,24.6288506 Z" id="path-3"></path>
        <path d="M0.641846154,0.981619048 C0.484615385,1.24980952 0.401692308,1.55257143 0.401692308,1.85952381 L0.401692308,1.85952381 L0.344615385,28.7938095 C0.343538462,29.4265714 0.689230769,30.0153333 1.25030769,30.3317143 L1.25030769,30.3317143 L25.0503077,43.7506667 C25.9161538,44.2388571 27.0178462,43.9465714 27.5132308,43.098 L27.5132308,43.098 C27.6715385,42.8319048 27.7533846,42.5291429 27.7533846,42.2211429 L27.7533846,42.2211429 L27.8115385,15.2889524 C27.8126154,14.6530476 27.468,14.0674286 26.9058462,13.75 L26.9058462,13.75 L3.10369231,0.33 C2.82046154,0.169714286 2.51246154,0.0942857143 2.20661538,0.0942857143 L2.20661538,0.0942857143 C1.58307692,0.0942857143 0.975692308,0.413809524 0.641846154,0.981619048 L0.641846154,0.981619048 Z M21.9078462,36.8772381 L5.31030769,27.5188571 C5.03030769,27.3606667 4.858,27.0673333 4.858,26.7499048 L4.858,26.7499048 L4.89784615,7.97028571 C4.89784615,7.48104762 5.30384615,7.08609524 5.80030769,7.08714286 L5.80030769,7.08714286 C5.95861538,7.08714286 6.11153846,7.12695238 6.24830769,7.20447619 L6.24830769,7.20447619 L22.8458462,16.5639048 C23.1269231,16.7210476 23.2992308,17.0154286 23.2981538,17.3318095 L23.2981538,17.3318095 L23.2572308,36.1114286 C23.2572308,36.6006667 22.8533846,36.9966667 22.3547692,36.995619 L22.3547692,36.995619 C22.1986154,36.9945714 22.0435385,36.9526667 21.9078462,36.8772381 L21.9078462,36.8772381 Z" id="path-5"></path>
        <path d="M25.1459863,0.0942857143 C24.8379863,0.0942857143 24.5363151,0.176 24.2705068,0.33 L24.2705068,0.33 L0.990136986,13.75 C0.44269863,14.0674286 0.105164384,14.6530476 0.106219178,15.2889524 L0.106219178,15.2889524 L0.162123288,42.2211429 C0.164232877,43.1985714 0.955328767,43.9884762 1.92890411,43.9874286 L1.92890411,43.9874286 C2.23690411,43.986381 2.53857534,43.9046667 2.80438356,43.7506667 L2.80438356,43.7506667 L26.0847534,30.3317143 C26.6332466,30.0153333 26.9707808,29.4265714 26.969726,28.7938095 L26.969726,28.7938095 L26.9138219,1.85952381 C26.9117123,0.885238095 26.1216712,0.0942857143 25.1502055,0.0942857143 L25.1502055,0.0942857143 L25.1459863,0.0942857143 Z M4.67558904,36.5514286 C4.59964384,36.4173333 4.55956164,36.2654286 4.55850685,36.1114286 L4.55850685,36.1114286 L4.52053425,17.3318095 C4.51947945,17.0154286 4.68930137,16.7210476 4.96249315,16.5639048 L4.96249315,16.5639048 L21.194726,7.20447619 C21.6176986,6.96142857 22.1566986,7.10809524 22.3993014,7.53133333 L22.3993014,7.53133333 C22.4763014,7.66438095 22.5174384,7.8152381 22.5174384,7.97028571 L22.5174384,7.97028571 L22.5564658,26.7488571 C22.5575205,27.0673333 22.3876986,27.3606667 22.1134521,27.5188571 L22.1134521,27.5188571 L5.88016438,36.8772381 C5.7430411,36.9579048 5.59326027,36.995619 5.44347945,36.995619 L5.44347945,36.995619 C5.13864384,36.995619 4.84013699,36.836381 4.67558904,36.5514286 L4.67558904,36.5514286 Z" id="path-7"></path>
        <polygon id="path-9" points="36.9500204 2.471875 46.0030408 7.77291667 25.3490816 19.734375 4.99383673 7.775 14.0499796 2.471875 9.69936735 0 0 5.67916667 0 16.1635417 4.34957143 18.6333333 4.34957143 8.9125 24.6892041 20.8635417 24.6923265 44.5958333 16.5198367 39.7572917 16.5198367 44.775 25.3438776 50 25.3438776 49.9989583 34.323 44.7395833 34.323 39.721875 25.9964694 44.5989583 25.9943878 20.871875 46.6504286 8.91041667 46.6504286 18.6333333 51 16.1635417 51 5.67916667 41.3006327 0"></polygon>
        <path d="M6.01725714,0.572666667 L4.19051429,3.42755556 L1.07194286,1.54685185 C0.751628571,1.35351852 0.322428571,1.43944444 0.117342857,1.74125926 L0.117342857,1.74125926 C-0.0898571429,2.04307407 0.00317142857,2.4437037 0.324542857,2.63811111 L0.324542857,2.63811111 L4.04145714,4.88077778 C4.20002857,4.97637037 4.39242857,5.00751852 4.5732,4.9667037 L4.5732,4.9667037 C4.75608571,4.92696296 4.91254286,4.81955556 5.00874286,4.66918519 L5.00874286,4.66918519 L5.91894286,3.24818519 L5.91894286,9.13733333 C5.91894286,9.42518519 6.1198,9.67866667 6.4158,9.75922222 L6.4158,9.75922222 C6.47922857,9.77640741 6.54477143,9.78607407 6.61031429,9.78607407 L6.61031429,9.78607407 C6.84077143,9.78607407 7.06277143,9.67651852 7.19068571,9.48748148 L7.19068571,9.48748148 L8.82714286,7.09981481 L11.8209714,8.7947037 C12.1476286,8.97944444 12.5736571,8.8817037 12.7702857,8.57451852 L12.7702857,8.57451852 C12.9690286,8.26840741 12.8633143,7.86885185 12.5366571,7.68411111 L12.5366571,7.68411111 L8.96668571,5.66377778 C8.64531429,5.48225926 8.22774286,5.57248148 8.02582857,5.86785185 L8.02582857,5.86785185 L7.30274286,6.92688889 L7.30274286,0.90562963 C7.30274286,0.614555556 7.09448571,0.358925926 6.79425714,0.281592593 L6.79425714,0.281592593 C6.73188571,0.264407407 6.67057143,0.256888889 6.6082,0.256888889 L6.6082,0.256888889 C6.37034286,0.256888889 6.14411429,0.372888889 6.01725714,0.572666667 L6.01725714,0.572666667 Z" id="path-11"></path>
        <path d="M6.18391429,0.281592593 C5.88368571,0.358925926 5.67648571,0.614555556 5.67648571,0.90562963 L5.67648571,0.90562963 L5.67648571,6.92688889 L4.95128571,5.86785185 C4.74937143,5.57248148 4.33285714,5.48225926 4.01254286,5.66377778 L4.01254286,5.66377778 L0.441514286,7.68411111 C0.115914286,7.86885185 0.0102,8.26840741 0.207885714,8.57451852 L0.207885714,8.57451852 C0.403457143,8.8817037 0.829485714,8.97944444 1.1572,8.7947037 L1.1572,8.7947037 L4.15208571,7.09981481 L5.78642857,9.48748148 C5.9154,9.67651852 6.13845714,9.78607407 6.36785714,9.78607407 L6.36785714,9.78607407 C6.43445714,9.78607407 6.49788571,9.77640741 6.56131429,9.75922222 L6.56131429,9.75922222 C6.85837143,9.67866667 7.06028571,9.42518519 7.06028571,9.13733333 L7.06028571,9.13733333 L7.06028571,3.24711111 L7.97048571,4.66918519 C8.06562857,4.81955556 8.22314286,4.92696296 8.40391429,4.9667037 L8.40391429,4.9667037 C8.58574286,5.00751852 8.7792,4.97637037 8.93671429,4.88077778 L8.93671429,4.88077778 L12.6546857,2.63811111 C12.975,2.4437037 13.0680286,2.04307407 12.8618857,1.74125926 L12.8618857,1.74125926 C12.6546857,1.43944444 12.2276,1.35351852 11.9062286,1.54685185 L11.9062286,1.54685185 L8.78765714,3.42755556 L6.96091429,0.572666667 C6.83405714,0.372888889 6.60677143,0.256888889 6.36891429,0.256888889 L6.36891429,0.256888889 C6.3076,0.256888889 6.24522857,0.264407407 6.18391429,0.281592593 L6.18391429,0.281592593 Z" id="path-13"></path>
        <path d="M0.0297435897,3.50959091 C0.0297435897,5.29836364 2.65538462,6.74945455 5.89435897,6.74945455 L5.89435897,6.74945455 C7.26461538,6.74945455 8.52615385,6.49018182 9.52512821,6.05422727 L9.52512821,6.05422727 L12.6512821,7.78131818 C12.9210256,7.93081818 13.3569231,7.93081818 13.625641,7.78131818 L13.625641,7.78131818 C13.8964103,7.63181818 13.8964103,7.39136364 13.625641,7.24290909 L13.625641,7.24290909 L10.5005128,5.51477273 C11.2892308,4.96381818 11.7589744,4.26754545 11.7589744,3.50959091 L11.7589744,3.50959091 C11.7589744,1.72081818 9.13333333,0.269727273 5.89435897,0.269727273 L5.89435897,0.269727273 C2.65538462,0.269727273 0.0297435897,1.72081818 0.0297435897,3.50959091 L0.0297435897,3.50959091 Z M1.97538462,3.50959091 C1.97538462,2.31463636 3.73025641,1.34445455 5.89435897,1.34445455 L5.89435897,1.34445455 C8.05846154,1.34445455 9.81333333,2.31463636 9.81333333,3.50959091 L9.81333333,3.50959091 C9.81333333,4.09713636 9.39076923,4.62927273 8.70461538,5.01922727 L8.70461538,5.01922727 C8.68923077,5.0255 8.67794872,5.03281818 8.66461538,5.03909091 L8.66461538,5.03909091 C8.65128205,5.04640909 8.63794872,5.05372727 8.62666667,5.06209091 L8.62666667,5.06209091 C7.92102564,5.44159091 6.95692308,5.67472727 5.89435897,5.67472727 L5.89435897,5.67472727 C3.73025641,5.67472727 1.97538462,4.70559091 1.97538462,3.50959091 L1.97538462,3.50959091 Z" id="path-15"></path>
    </defs>
    <g id="ICAM_logo_w_s" stroke="none" stroke-width="1" fill="none" fill-rule="evenodd">
        <g id="Group-46">
            <path d="M109,61.439834 L118.652268,61.439834 L118.652268,17.560166 L109,17.560166 L109,61.439834 Z M147.27873,62 C142.865785,62 139.01914,61.06639 135.739844,59.1991701 C132.460548,57.3319502 129.94366,54.6967438 128.191276,51.2946058 C126.437843,47.8924678 125.561127,43.9502075 125.561127,39.4688797 C125.561127,34.9875519 126.437843,31.0452915 128.191276,27.6431535 C129.94366,24.2410155 132.460548,21.6163584 135.739844,19.7691821 C139.01914,17.9230607 142.865785,17 147.27873,17 C150.16686,17 152.930194,17.4462339 155.569781,18.3376468 C158.210416,19.2301146 160.375989,20.4643786 162.066499,22.0414938 L158.972824,28.9502075 C157.075719,27.4975737 155.189101,26.4394824 153.311922,25.7759336 C151.434742,25.1123848 149.486251,24.780083 147.464351,24.780083 C143.587293,24.780083 140.606878,26.0248963 138.524152,28.5145228 C136.441427,31.0041494 135.399016,34.65525 135.399016,39.4688797 C135.399016,44.2825093 136.441427,47.9441592 138.524152,50.4538294 C140.606878,52.9645545 143.587293,54.219917 147.464351,54.219917 C149.486251,54.219917 151.434742,53.8876152 153.311922,53.2240664 C155.189101,52.5605176 157.075719,51.5024263 158.972824,50.0497925 L162.066499,56.9585062 C160.375989,58.5356214 158.210416,59.7698854 155.569781,60.6612983 C152.930194,61.5537661 150.16686,62 147.27873,62 L147.27873,62 Z M200.90314,61.439834 L196.757614,51.7302905 L176.463102,51.7302905 L172.317577,61.439834 L162.603436,61.439834 L182.650454,17.560166 L190.384643,17.560166 L210.431661,61.439834 L200.90314,61.439834 Z M179.618651,44.3858921 L193.602065,44.3858921 L186.610358,27.9543568 L179.618651,44.3858921 Z M249.390999,17.560166 L256.877694,17.560166 L256.877694,61.439834 L248.401023,61.439834 L248.401023,35.4232365 L238.377514,54.219917 L232.190163,54.219917 L222.166654,35.6721992 L222.166654,61.439834 L213.689983,61.439834 L213.689983,17.560166 L221.300425,17.560166 L235.345712,44.3858921 L249.390999,17.560166 Z M282.009876,17.560166 L299.272586,17.560166 C303.851226,17.560166 307.409477,18.6804979 309.946291,20.9211618 C312.483105,23.1618257 313.750988,26.3360996 313.750988,30.4439834 C313.750988,34.5518672 312.472618,37.7472396 309.91483,40.0290456 C307.35809,42.3108517 303.810326,43.4522822 299.272586,43.4522822 L287.083504,43.4522822 L287.083504,61.439834 L282.009876,61.439834 L282.009876,17.560166 Z M298.777598,39.219917 C305.419038,39.219917 308.739233,36.2946058 308.739233,30.4439834 C308.739233,24.6767002 305.419038,21.7925311 298.777598,21.7925311 L287.083504,21.7925311 L287.083504,39.219917 L298.777598,39.219917 Z M332.159931,61.8755187 C329.313749,61.8755187 326.808396,61.2320135 324.642823,59.9460581 C322.476202,58.6601027 320.806665,56.8234756 319.631069,54.4372319 C318.455472,52.052043 317.867149,49.281806 317.867149,46.1286307 C317.867149,42.9754554 318.455472,40.2052184 319.631069,37.8200295 C320.806665,35.4337858 322.476202,33.5971587 324.642823,32.3112033 C326.808396,31.0252479 329.313749,30.3817427 332.159931,30.3817427 C335.006112,30.3817427 337.521952,31.0252479 339.708499,32.3112033 C341.895046,33.5971587 343.576118,35.4337858 344.750666,37.8200295 C345.927311,40.2052184 346.514585,42.9754554 346.514585,46.1286307 C346.514585,49.281806 345.927311,52.052043 344.750666,54.4372319 C343.576118,56.8234756 341.895046,58.6601027 339.708499,59.9460581 C337.521952,61.2320135 335.006112,61.8755187 332.159931,61.8755187 L332.159931,61.8755187 Z M332.159931,57.7053942 C335.129859,57.7053942 337.408692,56.7200928 338.996429,54.7494901 C340.585215,52.7778325 341.379084,49.9042127 341.379084,46.1286307 C341.379084,42.435333 340.574728,39.5828117 338.966017,37.5710669 C337.357306,35.5582671 335.08896,34.5518672 332.159931,34.5518672 C329.230901,34.5518672 326.962555,35.5582671 325.353844,37.5710669 C323.745133,39.5828117 322.940777,42.435333 322.940777,46.1286307 C322.940777,49.8630705 323.734646,52.7261411 325.322383,54.7178423 C326.911169,56.7095436 329.190002,57.7053942 332.159931,57.7053942 L332.159931,57.7053942 Z M369.505314,34.7385892 L366.226018,35.0497925 C363.132343,35.3398973 360.894409,36.3157043 359.512218,37.9751037 C358.131075,39.6345031 357.439979,41.688445 357.439979,44.1369295 L357.439979,61.439834 L352.428225,61.439834 L352.428225,31.1286307 L357.316232,31.1286307 L357.316232,36.4190871 C359.007791,32.8924678 362.327987,30.9208102 367.277868,30.5062241 L369.0722,30.3817427 L369.505314,34.7385892 Z M390.447925,57.8298755 C391.355054,57.8298755 392.262182,57.7676349 393.17036,57.6431535 L392.922866,61.626556 C391.973789,61.7921795 390.942913,61.8755187 389.82919,61.8755187 C386.198578,61.8755187 383.466705,60.9208102 381.630425,59.0124481 C379.795194,57.1040861 378.877578,54.4477811 378.877578,51.0456432 L378.877578,35.1120332 L372.999595,35.1120332 L372.999595,31.1286307 L378.877578,31.1286307 L378.877578,21.9170124 L383.889333,21.9170124 L383.889333,31.1286307 L392.427878,31.1286307 L392.427878,35.1120332 L383.889333,35.1120332 L383.889333,50.6721992 C383.889333,55.4436318 386.074831,57.8298755 390.447925,57.8298755 L390.447925,57.8298755 Z M409.970591,30.3817427 C413.806749,30.3817427 416.662369,31.3670441 418.539548,33.3376468 C420.416728,35.3093045 421.355318,38.3074056 421.355318,42.3319502 L421.355318,61.439834 L416.46731,61.439834 L416.46731,56.2738589 C415.68288,58.0577396 414.487358,59.4375835 412.878646,60.4123356 C411.269935,61.3881426 409.41373,61.8755187 407.31003,61.8755187 C405.370977,61.8755187 403.587132,61.4809762 401.957447,60.6929461 C400.327762,59.904916 399.038905,58.8046276 398.090877,57.3941909 C397.1418,55.9837541 396.667786,54.4277375 396.667786,52.7261411 C396.667786,50.444335 397.244573,48.6699487 398.400244,47.4050918 C399.554867,46.13918 401.451972,45.2266685 404.092608,44.6654476 C406.732195,44.1052817 410.403706,43.8257261 415.106093,43.8257261 L416.46731,43.8257261 L416.46731,41.7717842 C416.46731,39.2410155 415.951348,37.4043885 414.920472,36.262958 C413.888548,35.1225825 412.217963,34.5518672 409.908718,34.5518672 C406.443801,34.5518672 402.99881,35.631057 399.575841,37.7883817 L397.905256,34.1161826 C399.47202,32.9958506 401.359686,32.0928335 403.566158,31.4092412 C405.772631,30.7235389 407.907791,30.3817427 409.970591,30.3817427 L409.970591,30.3817427 Z M407.990639,57.8921162 C410.465579,57.8921162 412.496918,57.0523947 414.084655,55.3718968 C415.673441,53.6903439 416.46731,51.5224699 416.46731,48.8672199 L416.46731,47.0622407 L415.353587,47.0622407 C411.722975,47.0622407 408.959641,47.2183698 407.062536,47.5295731 C405.164383,47.8397215 403.813652,48.3587453 403.009297,49.0845348 C402.204941,49.8113791 401.803288,50.8800197 401.803288,52.2904564 C401.803288,53.9087137 402.390562,55.2463605 403.566158,56.3044518 C404.741755,57.363598 406.216232,57.8921162 407.990639,57.8921162 L407.990639,57.8921162 Z M429.988246,61.439834 L435,61.439834 L435,17.560166 L429.988246,17.560166 L429.988246,61.439834 Z" id="Fill-1" fill="#FEFEFE"></path>
            <g id="Group-6" transform="translate(109.000000, 17.000000)">
                <mask id="mask-2" fill="white">
                    <use xlink:href="#path-1"></use>
                </mask>
                <g id="Clip-4"></g>
                <polygon id="Fill-3" fill="#FEFEFE" mask="url(#mask-2)" points="-591.202572 371.511628 457.028939 371.511628 457.028939 -257.44186 -591.202572 -257.44186"></polygon>
                <polygon id="Fill-5" fill="#FEFEFE" mask="url(#mask-2)" points="-5.24115756 49.8736047 331.093357 49.8736047 331.093357 -5.23255814 -5.24115756 -5.23255814"></polygon>
            </g>
            <g id="Group-9" transform="translate(14.000000, 0.000000)">
                <mask id="mask-4" fill="white">
                    <use xlink:href="#path-3"></use>
                </mask>
                <g id="Clip-8"></g>
                <polygon id="Fill-7" fill="#4EC0EE" mask="url(#mask-4)" points="-7.10509039 37.2304342 55.2629659 37.2304342 55.2629659 -7.29699872 -7.10509039 -7.29699872"></polygon>
            </g>
            <g id="Group-12" transform="translate(0.000000, 36.000000)">
                <mask id="mask-6" fill="white">
                    <use xlink:href="#path-5"></use>
                </mask>
                <g id="Clip-11"></g>
                <polygon id="Fill-10" fill="#4EC0EE" mask="url(#mask-6)" points="-7.294 51.4370476 35.4512308 51.4370476 35.4512308 -7.35533333 -7.294 -7.35533333"></polygon>
            </g>
            <g id="Group-15" transform="translate(50.000000, 36.000000)">
                <mask id="mask-8" fill="white">
                    <use xlink:href="#path-7"></use>
                </mask>
                <g id="Clip-14"></g>
                <polygon id="Fill-13" fill="#4EC0EE" mask="url(#mask-8)" points="-7.37227397 51.436 34.4482192 51.436 34.4482192 -7.35533333 -7.37227397 -7.35533333"></polygon>
            </g>
            <polygon id="Fill-16" fill="#FEFEFE" points="48.9500204 26.471875 58.0030408 31.7729167 37.3490816 43.7333333 16.9938367 31.7739583 26.0489388 26.471875 21.6993673 24 12 29.6791667 12 40.1625 16.3495714 42.6333333 16.3495714 32.9125 36.6881633 44.8635417 36.6923265 68.5958333 28.5187959 63.7572917 28.5187959 68.775 37.3438776 74 37.3438776 73.9989583 46.323 68.7395833 46.323 63.7208333 37.9964694 68.5979167 37.9943878 44.8729167 58.6504286 32.9104167 58.6504286 42.6333333 63 40.1625 63 29.6791667 53.2995918 24"></polygon>
            <g id="Group-21" transform="translate(12.000000, 24.000000)">
                <mask id="mask-10" fill="white">
                    <use xlink:href="#path-9"></use>
                </mask>
                <g id="Clip-19"></g>
                <polygon id="Fill-18" fill="#FEFEFE" mask="url(#mask-10)" points="-491.265306 363.541667 549.55102 363.541667 549.55102 -262.5 -491.265306 -262.5"></polygon>
                <polygon id="Fill-20" fill="#FEFEFE" mask="url(#mask-10)" points="-5.20408163 55.2083333 56.2040816 55.2083333 56.2040816 -5.20833333 -5.20408163 -5.20833333"></polygon>
            </g>
            <path d="M13.0739691,53.2982417 L11.2278798,55.9945897 L8.07628048,54.2183273 C7.75257384,54.0357304 7.31989665,54.1168846 7.1115706,54.4019387 C6.9021762,54.6869928 6.99619001,55.0653742 7.32096499,55.2489856 L11.077244,57.36711 C11.2374948,57.457394 11.4319325,57.4868124 11.6146184,57.4482642 C11.799441,57.4107304 11.9575551,57.3092876 12.054774,57.1672678 L12.9746136,55.8251803 L12.9746136,61.3872858 C12.9746136,61.6591524 13.1786663,61.8985573 13.4767328,61.9746393 C13.5419015,61.9908702 13.6070701,62 13.6733071,62 C13.906205,62 14.1305561,61.8965284 14.2598251,61.7179892 L15.9146818,59.462917 L18.9391488,61.0636835 C19.2692655,61.238165 19.699806,61.1458521 19.898517,60.8557259 C20.0993647,60.5666141 19.9925308,60.1892471 19.6624141,60.0147656 L16.0546342,58.1066276 C15.7298592,57.9351894 15.3089338,58.0204013 15.1038127,58.2993688 L14.3720007,59.2995942 L14.3720007,53.6127142 C14.3720007,53.3378043 14.1626063,53.0963706 13.8602664,53.0233318 C13.7972344,53.007101 13.7352708,53 13.6722388,53 C13.4318626,53 13.2021698,53.1095582 13.0739691,53.2982417" id="Fill-22" fill="#FEFEFE"></path>
            <g id="Group-29" transform="translate(7.000000, 53.000000)">
                <mask id="mask-12" fill="white">
                    <use xlink:href="#path-11"></use>
                </mask>
                <g id="Clip-25"></g>
                <polygon id="Fill-24" fill="#FEFEFE" mask="url(#mask-12)" points="-493.685714 344.407407 563.457143 344.407407 563.457143 -301.111111 -493.685714 -301.111111"></polygon>
                <polygon id="Fill-26" fill="#FEFEFE" mask="url(#mask-12)" points="-3.17142857 12.5185185 15.8571429 12.5185185 15.8571429 -2.51851852 -3.17142857 -2.51851852"></polygon>
                <polygon id="Fill-27" fill="#FEFEFE" mask="url(#mask-12)" points="-1.05714286 10.3703704 13.7428571 10.3703704 13.7428571 -0.37037037 -1.05714286 -0.37037037"></polygon>
                <polygon id="Fill-28" fill="#FEFEFE" mask="url(#mask-12)" points="-7.58394286 17.3185556 20.4631143 17.3185556 20.4631143 -7.27451852 -7.58394286 -7.27451852"></polygon>
            </g>
            <path d="M63.1403958,53.0233318 C62.8369843,53.0963706 62.6275875,53.3378043 62.6275875,53.6127142 L62.6275875,59.2995942 L61.894699,58.2993688 C61.690644,58.0204013 61.2697138,57.9351894 60.9460036,58.1066276 L57.3371151,60.0147656 C57.0069947,60.1892471 56.901228,60.5666141 57.1010096,60.8557259 C57.2986545,61.1458521 57.7281314,61.238165 58.0603885,61.0636835 L61.0859575,59.462917 L62.738696,61.7179892 C62.8701031,61.8965284 63.0944568,62 63.3262889,62 C63.3925266,62 63.457696,61.9908702 63.521797,61.9746393 C63.8220036,61.8985573 64.0260585,61.6591524 64.0260585,61.3872858 L64.0260585,55.8241659 L64.9459085,57.1672678 C65.04206,57.3092876 65.2001759,57.4107304 65.3850006,57.4482642 C65.5687569,57.4868124 65.7631967,57.457394 65.9223809,57.36711 L69.6797702,55.2489856 C70.0034805,55.0653742 70.0974953,54.6869928 69.8891669,54.4019387 C69.6797702,54.1168846 69.2481565,54.0357304 68.9233779,54.2183273 L65.7728119,55.9945897 L63.9267019,53.2982417 C63.7974315,53.1095582 63.5688045,53 63.3284256,53 C63.2653929,53 63.2034285,53.007101 63.1403958,53.0233318" id="Fill-30" fill="#FEFEFE"></path>
            <g id="Group-37" transform="translate(57.000000, 53.000000)">
                <mask id="mask-14" fill="white">
                    <use xlink:href="#path-13"></use>
                </mask>
                <g id="Clip-33"></g>
                <polygon id="Fill-32" fill="#FEFEFE" mask="url(#mask-14)" points="-543.742857 344.407407 513.4 344.407407 513.4 -301.111111 -543.742857 -301.111111"></polygon>
                <polygon id="Fill-34" fill="#FEFEFE" mask="url(#mask-14)" points="-2.48571429 12.5185185 15.4857143 12.5185185 15.4857143 -2.51851852 -2.48571429 -2.51851852"></polygon>
                <polygon id="Fill-35" fill="#FEFEFE" mask="url(#mask-14)" points="-0.371428571 10.3703704 13.3714286 10.3703704 13.3714286 -0.37037037 -0.371428571 -0.37037037"></polygon>
                <polygon id="Fill-36" fill="#FEFEFE" mask="url(#mask-14)" points="-7.48282857 17.3185556 20.5631714 17.3185556 20.5631714 -7.27451852 -7.48282857 -7.27451852"></polygon>
            </g>
            <path d="M32,14.3997737 C32,16.276835 34.6640403,17.7995475 37.9493431,17.7995475 C39.3406798,17.7995475 40.6196272,17.5274778 41.6332113,17.0700058 L44.8050843,18.8823408 C45.0787728,19.0392197 45.5210451,19.0392197 45.7947336,18.8823408 C46.0684221,18.725462 46.0684221,18.4731393 45.7947336,18.3173575 L42.6239013,16.5039254 C43.4231134,15.9257774 43.8997268,15.1951387 43.8997268,14.3997737 C43.8997268,12.5227125 41.2367272,11 37.9493431,11 C34.6640403,11 32,12.5227125 32,14.3997737 M33.9730548,14.3997737 C33.9730548,13.1458398 35.7546318,12.1277726 37.9493431,12.1277726 C40.1461357,12.1277726 41.926672,13.1458398 41.926672,14.3997737 C41.926672,15.0163187 41.4968874,15.5747197 40.8006987,15.9839213 C40.7861297,15.9905036 40.7736421,15.998183 40.7601137,16.0047653 C40.7465854,16.0124447 40.7340977,16.0201241 40.7226507,16.0289005 C40.0066898,16.4271315 39.0274469,16.6717748 37.9493431,16.6717748 C35.7546318,16.6717748 33.9730548,15.6548048 33.9730548,14.3997737" id="Fill-38" fill="#FEFEFE"></path>
            <g id="Group-45" transform="translate(32.000000, 11.000000)">
                <mask id="mask-16" fill="white">
                    <use xlink:href="#path-15"></use>
                </mask>
                <g id="Clip-41"></g>
                <polygon id="Fill-40" fill="#FEFEFE" mask="url(#mask-16)" points="-502.564103 377.409091 523.076923 377.409091 523.076923 -250.909091 -502.564103 -250.909091"></polygon>
                <polygon id="Fill-42" fill="#FEFEFE" mask="url(#mask-16)" points="-7.17948718 13.5909091 21.5384615 13.5909091 21.5384615 -5.22727273 -7.17948718 -5.22727273"></polygon>
                <polygon id="Fill-43" fill="#FEFEFE" mask="url(#mask-16)" points="0 8.36363636 14.3589744 8.36363636 14.3589744 0 0 0"></polygon>
                <polygon id="Fill-44" fill="#FEFEFE" mask="url(#mask-16)" points="-12.1394872 17.8929545 25.9979487 17.8929545 25.9979487 -9.73004545 -12.1394872 -9.73004545"></polygon>
            </g>
        </g>
    </g>
</svg>