<?xml version="1.0" encoding="UTF-8"?>
<svg width="24px" height="24px" viewBox="0 0 24 24" version="1.1" xmlns="http://www.w3.org/2000/svg" xmlns:xlink="http://www.w3.org/1999/xlink">
    <!-- Generator: Sketch 54.1 (76490) - https://sketchapp.com -->
    <title>rotate-ccw</title>
    <desc>Created with Sketch.</desc>
    <defs>
        <path d="M4.52455351,8.99090736 L3.00000303,8.99090736 L3.00000303,7.67927437 L5.93349439,4.92320294 C9.08553025,1.77649298 13.9387121,1.09367728 17.8366436,3.24849603 C21.7345751,5.40331479 23.7375736,9.8763013 22.7492949,14.2191597 C21.7610163,18.5620181 18.0197068,21.7278063 13.5731779,21.9837254 C9.12664905,22.2396445 5.04683484,19.5239996 3.56682772,15.3232029 C3.38330594,14.8023016 3.65680611,14.2312538 4.17770745,14.0477321 C4.69860878,13.8642103 5.26965655,14.1377104 5.45317833,14.6586118 C6.63718402,18.0192491 9.90103539,20.1917651 13.4582585,19.9870298 C17.0154816,19.7822945 20.0085292,17.2496639 20.7991521,13.7753772 C21.589775,10.3010905 19.9873762,6.72270126 16.869031,4.99884626 C13.7506858,3.27499125 9.86814035,3.82124382 7.32477961,6.35966042 L4.52455351,8.99090736 Z M3.00000303,7.67927437 L1.31522644,9.2621543 C1.10643123,9.4583498 1.00065448,9.72308261 1.00000303,9.98863306 L1.00000303,9.99090736 C1.00000303,10.1233857 1.02576418,10.2498471 1.07255034,10.3655556 C1.1127076,10.4693402 1.18053193,10.57914 1.27124996,10.6756839 C1.46866122,10.885773 1.73546182,10.9915629 2.00266538,10.9909074 Z" id="path-1"></path>
    </defs>
    <g id="rotate-ccw" stroke="none" stroke-width="1" fill="none" fill-rule="evenodd">
        <mask id="mask-2" fill="white">
            <use xlink:href="#path-1"></use>
        </mask>
        <use id="Combined-Shape" fill="#000000" fill-rule="nonzero" xlink:href="#path-1"></use>
        <g id="COLOR/-black" mask="url(#mask-2)" fill="#28313B">
            <rect id="Rectangle" x="0" y="0" width="24" height="24"></rect>
        </g>
    </g>
</svg>