<?xml version="1.0" encoding="UTF-8"?>
<svg width="24px" height="24px" viewBox="0 0 24 24" version="1.1" xmlns="http://www.w3.org/2000/svg" xmlns:xlink="http://www.w3.org/1999/xlink">
    <!-- Generator: Sketch 54.1 (76490) - https://sketchapp.com -->
    <title>rotate-cw</title>
    <desc>Created with Sketch.</desc>
    <defs>
        <path d="M19.4764287,8.99954505 L21.3111894,10.7275604 C21.5036907,10.9088359 21.7490988,10.9989646 21.9941797,10.999545 L15.9967502,10.999545 C15.4444655,10.999545 14.9967502,10.5518298 14.9967502,9.99954505 C14.9967502,9.4472603 15.4444655,8.99954505 15.9967502,8.99954505 L19.4764287,8.99954505 L16.6594201,6.34642845 C14.1405645,3.82598114 10.2583627,3.27532209 7.13795391,4.99588516 C4.0175451,6.71644824 2.41126834,10.293401 3.19840857,13.7686994 C3.98554879,17.2439977 6.97632435,19.7797378 10.5335679,19.9878411 C14.0908114,20.1959445 17.3568617,18.0262369 18.5438646,14.6664285 C18.7278398,14.1456871 19.2991255,13.8726842 19.8198668,14.0566594 C20.3406082,14.2406346 20.6136111,14.8119203 20.4296359,15.3326616 C18.9458823,19.5324222 14.8633194,22.2445567 10.416765,21.9844275 C5.97021058,21.7242983 2.23174113,18.5546232 1.24781585,14.2105003 C0.263890566,9.86637732 2.27173652,5.39518638 6.17224752,3.24448253 C10.0727585,1.09377869 14.9255108,1.7821025 18.0523111,4.91152973 L20.9967502,7.68426291 Z M22.9967502,9.99734929 C22.9973345,10.2440125 22.9072163,10.4913566 22.7247655,10.6851059 C22.6264078,10.7895546 22.510892,10.8681527 22.3867216,10.9206448 C22.2766344,10.9693316 22.1402207,10.999545 21.9967502,10.999545 L21.9941797,10.999545 Z" id="path-1"></path>
    </defs>
    <g id="rotate-cw" stroke="none" stroke-width="1" fill="none" fill-rule="evenodd">
        <mask id="mask-2" fill="white">
            <use xlink:href="#path-1"></use>
        </mask>
        <use id="Combined-Shape" fill="#000000" fill-rule="nonzero" xlink:href="#path-1"></use>
        <g id="COLOR/-black" mask="url(#mask-2)" fill="#28313B">
            <rect id="Rectangle" x="0" y="0" width="24" height="24"></rect>
        </g>
    </g>
</svg>