<?xml version="1.0" ?><!DOCTYPE svg  PUBLIC '-//W3C//DTD SVG 1.1//EN'  'http://www.w3.org/Graphics/SVG/1.1/DTD/svg11.dtd'><svg height="512px" style="enable-background:new 0 0 512 512;" version="1.1" viewBox="0 0 512 512" width="512px" xml:space="preserve" xmlns="http://www.w3.org/2000/svg" xmlns:xlink="http://www.w3.org/1999/xlink"><g id="_x31_30_x2C__Building_x2C__Technology_x2C__Smart_City_x2C__Connected_x2C__internet"><g><path d="M152.399,91.438h97.594v-12.78c-32.54,0-65.054,0-97.594,0V91.438z     M227.064,50.514h94.704V37.76c-31.567,0-63.136,0-94.704,0V50.514z M369.898,231.947c0-1.738,1.408-3.145,3.145-3.145    c1.74,0,3.145,1.406,3.145,3.145v23.721c0,1.712-1.404,3.143-3.145,3.143c-1.736,0-3.145-1.431-3.145-3.143V231.947z     M391.781,231.947c0-1.738,1.405-3.145,3.143-3.145c1.738,0,3.145,1.406,3.145,3.145v23.721c0,1.712-1.406,3.143-3.145,3.143    c-1.737,0-3.143-1.431-3.143-3.143V231.947z M369.898,280.206c0-1.738,1.408-3.144,3.145-3.144c1.74,0,3.145,1.405,3.145,3.144    v23.721c0,1.737-1.404,3.144-3.145,3.144c-1.736,0-3.145-1.406-3.145-3.144V280.206z M391.781,280.206    c0-1.738,1.405-3.144,3.143-3.144c1.738,0,3.145,1.405,3.145,3.144v23.721c0,1.737-1.406,3.144-3.145,3.144    c-1.737,0-3.143-1.406-3.143-3.144V280.206z M369.898,328.465c0-1.738,1.408-3.144,3.145-3.144c1.74,0,3.145,1.405,3.145,3.144    v23.721c0,1.738-1.404,3.145-3.145,3.145c-1.736,0-3.145-1.406-3.145-3.145V328.465z M391.781,328.465    c0-1.738,1.405-3.144,3.143-3.144c1.738,0,3.145,1.405,3.145,3.144v23.721c0,1.738-1.406,3.145-3.145,3.145    c-1.737,0-3.143-1.406-3.143-3.145V328.465z M369.898,376.725c0-1.738,1.408-3.145,3.145-3.145c1.74,0,3.145,1.406,3.145,3.145    v23.721c0,1.737-1.404,3.145-3.145,3.145c-1.736,0-3.145-1.407-3.145-3.145V376.725z M391.781,376.725    c0-1.738,1.405-3.145,3.143-3.145c1.738,0,3.145,1.406,3.145,3.145v23.721c0,1.737-1.406,3.145-3.145,3.145    c-1.737,0-3.143-1.407-3.143-3.145V376.725z M99.234,469.844c-1.739,0-3.145-1.406-3.145-3.144c0-1.738,1.405-3.145,3.145-3.145    h208.883c1.74,0,3.145,1.406,3.145,3.145c0,1.737-1.404,3.144-3.145,3.144H99.234z M221.544,485.999    c-1.713,0-3.145-1.407-3.145-3.145c0-1.738,1.432-3.144,3.145-3.144h144.548c1.736,0,3.145,1.405,3.145,3.144    c0,1.737-1.408,3.145-3.145,3.145H221.544z M68.866,485.513c-1.712,0-3.145-1.432-3.145-3.144c0-1.739,1.432-3.145,3.145-3.145    h90.64c1.739,0,3.145,1.405,3.145,3.145c0,1.712-1.406,3.144-3.145,3.144H68.866z M43.409,266.939    c-0.537,0.537-0.871,1.277-0.871,2.07c0.026,0.741,0.307,1.432,0.742,1.943l0.128,0.102c0.537,0.537,1.277,0.869,2.07,0.869    c0.792,0,1.534-0.332,2.069-0.844c0.513-0.535,0.844-1.277,0.844-2.07c0-0.818-0.332-1.533-0.844-2.07    c-0.535-0.537-1.251-0.844-2.069-0.844C44.686,266.096,43.945,266.402,43.409,266.939z M54.476,227.269    c-0.511,0.512-0.844,1.253-0.844,2.071c-0.025,0.791,0.307,1.533,0.844,2.045c0.537,0.537,1.253,0.868,2.071,0.868    s1.56-0.331,2.07-0.843c0.511-0.512,0.818-1.176,0.844-1.943v-0.025v-0.025v-0.076v-0.128l0,0v-0.052    c-0.026-0.741-0.333-1.405-0.819-1.892c-0.535-0.536-1.277-0.868-2.095-0.868C55.753,226.4,55.013,226.732,54.476,227.269z     M42.564,134.584c0,0.818,0.307,1.56,0.844,2.071c0.537,0.511,1.277,0.843,2.07,0.843c0.792,0,1.534-0.332,2.069-0.843    l0.104-0.128c0.46-0.512,0.741-1.201,0.741-1.943c0-0.817-0.332-1.559-0.844-2.07c-0.535-0.537-1.277-0.869-2.069-0.869    c-0.819,0.026-1.534,0.357-2.07,0.869C42.896,133.051,42.564,133.767,42.564,134.584z M53.632,174.255    c0,0.819,0.333,1.534,0.87,2.071c0.537,0.536,1.251,0.869,2.044,0.869c0.818-0.025,1.534-0.358,2.07-0.869l0.128-0.129    c0.433-0.459,0.716-1.098,0.74-1.814l-0.024-0.128v-0.102l0,0v-0.052c-0.026-0.74-0.333-1.406-0.819-1.891    c-0.535-0.537-1.277-0.869-2.095-0.869c-0.793,0-1.534,0.332-2.044,0.843C53.965,172.721,53.607,173.463,53.632,174.255z     M401.518,147.084c0-0.818-0.331-1.56-0.842-2.071c-0.537-0.536-1.279-0.868-2.07-0.868c-0.793,0-1.534,0.332-2.07,0.843    c-0.486,0.512-0.818,1.176-0.845,1.942v0.026l0,0v0.128v0.102l0,0v0.025c0.026,0.768,0.358,1.432,0.845,1.918    c0.536,0.537,1.252,0.869,2.07,0.869c0.817,0,1.533-0.332,2.07-0.844C401.213,148.617,401.544,147.876,401.518,147.084z     M400.676,94.07c0.511-0.537,0.842-1.252,0.842-2.071c0.026-0.792-0.305-1.533-0.842-2.044c-0.537-0.537-1.253-0.869-2.07-0.869    c-0.818,0-1.561,0.332-2.07,0.844c-0.486,0.51-0.818,1.176-0.845,1.917v0.051l0,0v0.102v0.128    c0.026,0.717,0.308,1.355,0.716,1.816l0.129,0.127c0.536,0.537,1.277,0.869,2.07,0.869    C399.396,94.939,400.139,94.607,400.676,94.07z M407.807,91.999c0,2.558-1.022,4.857-2.685,6.519    c-1.66,1.637-3.96,2.685-6.517,2.685c-2.531,0-4.831-1.022-6.52-2.685l-0.203-0.23c-0.844-0.894-1.51-1.968-1.943-3.144h-14.264    c-0.945,0-1.788-0.409-2.376-1.073l-11.019-11.017l-12.141,12.142v21.445h50.893c1.737,0,3.144,1.406,3.144,3.118    c0,1.739-1.406,3.144-3.144,3.144h-44.859l7.157,7.132h25.739c1.712,0,3.119,1.407,3.119,3.118c0,1.739-1.407,3.145-3.119,3.145    h-27.043c-0.871,0-1.637-0.357-2.225-0.92l-9.662-9.662v18.174l12.141,12.142l11.019-11.018c0.562-0.664,1.431-1.073,2.376-1.073    h14.289c0.459-1.277,1.201-2.428,2.121-3.349c1.688-1.687,3.988-2.709,6.52-2.709c2.557,0,4.856,1.022,6.517,2.684    c1.662,1.688,2.685,3.987,2.685,6.519c-0.026,2.531-1.047,4.831-2.685,6.492c-1.687,1.662-3.986,2.709-6.517,2.709    c-2.531,0-4.831-1.047-6.493-2.709c-0.946-0.945-1.688-2.096-2.147-3.348h-13.01l-10.252,10.224l4.604,4.601h6.031    c1.738,0,3.145,1.432,3.145,3.145c0,1.738-1.406,3.145-3.145,3.145h-7.336c-0.869,0-1.637-0.358-2.225-0.921l-17.637-17.638    v295.282h-46.01V94.557c0-1.713-1.405-3.119-3.145-3.119h-44.706V75.513c0-1.738-1.406-3.144-3.145-3.144h-58.61V56.802    c51.863,0,103.751,0,155.615,0V86.3l17.637-17.638c0.588-0.562,1.381-0.92,2.225-0.92h7.336c1.738,0,3.145,1.406,3.145,3.145    c0,1.712-1.406,3.117-3.145,3.117h-6.007l-4.628,4.602l10.252,10.25h13.01c0.459-1.253,1.201-2.402,2.121-3.349    c1.688-1.661,3.988-2.71,6.52-2.71c2.53,0,4.856,1.049,6.517,2.71C406.76,87.143,407.78,89.469,407.807,91.999z M411.462,375.089    h64.261v6.288h-64.261v66.484l-13.394,0.051v-22.928c0-1.738-1.406-3.145-3.145-3.145c-1.737,0-3.143,1.406-3.143,3.145v22.954    l-15.594,0.051v-23.005c0-1.738-1.404-3.145-3.145-3.145c-1.736,0-3.145,1.406-3.145,3.145v23.03l-13.469,0.051V183.201    l55.032,58.664v52.655h28.937v6.263h-28.937v43.223h28.937v6.288h-28.937V375.089z M36.481,375.089h68.068v-24.795H71.626v-6.288    h32.923v-43.223H71.626v-6.263h32.923v-35.581L92.28,271.234c-0.588,0.537-1.379,0.895-2.224,0.895H54.118    c-0.459,1.277-1.2,2.428-2.146,3.373c-1.662,1.662-3.962,2.711-6.493,2.711c-2.532,0-4.833-1.049-6.519-2.711l-0.204-0.229    c-1.534-1.636-2.479-3.859-2.479-6.263c0.024-2.556,1.047-4.856,2.683-6.518c1.686-1.661,3.986-2.685,6.519-2.685    c2.53,0,4.831,1.023,6.493,2.685c0.946,0.945,1.687,2.096,2.172,3.399l34.584-0.025l15.821-15.796v-14.571l-17.175,17.177    c-0.563,0.563-1.355,0.921-2.225,0.921h-7.335c-1.739,0-3.145-1.405-3.145-3.144s1.405-3.145,3.145-3.145h6.031l4.601-4.602    l-10.25-10.25H65.211c-0.486,1.279-1.2,2.429-2.146,3.375c-1.688,1.662-3.989,2.684-6.519,2.684s-4.806-1.021-6.493-2.684    c-1.662-1.662-2.683-3.963-2.683-6.492c-0.026-2.531,1.021-4.832,2.683-6.493c1.635-1.688,3.962-2.71,6.493-2.71    s4.831,1.022,6.493,2.685c0.946,0.946,1.686,2.096,2.172,3.374h14.263c0.946,0,1.816,0.409,2.377,1.073l11.016,11.017    l11.682-11.681v-18.174l-9.202,9.202c-0.562,0.563-1.354,0.92-2.197,0.92H66.08c-1.713,0-3.118-1.406-3.118-3.145    c0-1.713,1.405-3.118,3.118-3.118h25.767l7.131-7.132l-44.86-0.025c-1.737,0-3.145-1.381-3.145-3.119    c0-1.712,1.407-3.117,3.145-3.117h50.432v-21.932l-11.682-11.656l-11.016,11.018c-0.562,0.664-1.432,1.073-2.377,1.073H65.211    c-0.434,1.176-1.099,2.224-1.943,3.118l-0.203,0.256c-1.662,1.661-3.962,2.684-6.519,2.684c-2.53,0-4.857-1.048-6.493-2.684    c-1.662-1.661-2.709-3.962-2.709-6.519c0.026-2.556,1.048-4.856,2.709-6.493c1.662-1.66,3.962-2.709,6.493-2.709    s4.831,1.049,6.493,2.709c0.946,0.946,1.686,2.071,2.147,3.35h13.01l10.25-10.25l-4.625-4.602h-6.006    c-1.713,0-3.12-1.405-3.12-3.144c0-1.712,1.407-3.118,3.12-3.118h7.335c0.87,0,1.637,0.357,2.225,0.92l7.615,7.617l0.053,0.077    l0.051,0.051l0.076,0.051l9.381,9.381v-14.569l-15.821-15.822H54.118c-0.409,1.176-1.074,2.249-1.916,3.145l-0.23,0.255    c-1.637,1.661-3.962,2.684-6.493,2.684c-2.532,0-4.833-1.022-6.493-2.709c-1.688-1.662-2.709-3.962-2.709-6.493    c0-2.555,1.021-4.855,2.683-6.518c1.662-1.662,3.986-2.684,6.519-2.684c2.555,0.025,4.855,1.047,6.493,2.684    c0.946,0.945,1.687,2.096,2.146,3.375l35.939,0.025c0.844,0,1.636,0.331,2.199,0.894l12.294,12.296V97.699    c49.512,0,99,0,148.512,0c14.927,0,29.855,0,44.783,0v350.366h-19.352V149.308c0-1.738-1.405-3.145-3.143-3.145    c-1.713,0-3.145,1.406-3.145,3.145v298.758h-23.106V149.308c0-1.738-1.407-3.145-3.145-3.145c-1.713,0-3.145,1.406-3.145,3.145    v298.758h-23.106V149.308c0-1.738-1.406-3.145-3.118-3.145c-1.739,0-3.145,1.406-3.145,3.145v298.758h-23.106V149.308    c0-1.738-1.432-3.145-3.145-3.145c-1.739,0-3.145,1.406-3.145,3.145v298.758h-23.107V149.308c0-1.738-1.432-3.145-3.145-3.145    c-1.737,0-3.145,1.406-3.145,3.145v298.758h-23.106V149.308c0-1.738-1.405-3.145-3.145-3.145c-1.737,0-3.143,1.406-3.143,3.145    v298.758h-20.706v-66.688H36.481V375.089z M251.757,31.471h45.32v-5.469h-45.32V31.471z" style="fill-rule:evenodd;clip-rule:evenodd;"/></g></g><g id="Layer_1"/></svg>