<?xml version="1.0" ?><svg enable-background="new 0 0 52 52" id="Layer_1" version="1.1" viewBox="0 0 52 52" xml:space="preserve" xmlns="http://www.w3.org/2000/svg" xmlns:xlink="http://www.w3.org/1999/xlink"><g><path d="M49,14.5v-2h-6.9953003V9.9989624H39.5V3h-2v6.9989624h-3V3h-2v6.9989624h-3V3h-2v6.9989624h-3V3h-2v6.9989624h-3V3h-2   v6.9989624h-3V3h-2v6.9989624h-2.4953003v32h32V39.5H49v-2h-6.9953003v-3H49v-2h-6.9953003v-3H49v-2h-6.9953003v-3H49v-2   h-6.9953003v-3H49v-2h-6.9953003v-3H49z M13.2929688,14.7070313l1.4140625-1.4140625l1.4301758,1.4301758l-1.4140625,1.4140625   L13.2929688,14.7070313z M26,36.5h-7c-1.6542969,0-3-1.3457031-3-3v-7h2v7c0,0.5512695,0.4487305,1,1,1h7V36.5z M33,18.5h-7.293457   v-2H33c1.6542969,0,3,1.3457031,3,3v7h-2v-7C34,18.9487305,33.5512695,18.5,33,18.5z M37.2929688,38.7070313l-1.4296875-1.4296875   l1.4140625-1.4140625l1.4296875,1.4296875L37.2929688,38.7070313z"/><rect height="2" width="7" x="3" y="12.5"/><rect height="2" width="7" x="3" y="17.5"/><rect height="2" width="7" x="3" y="22.5"/><rect height="2" width="7" x="3" y="27.5"/><rect height="2" width="7" x="3" y="32.5"/><rect height="2" width="7" x="3" y="37.5"/><rect height="7" width="2" x="37.5" y="42"/><rect height="7" width="2" x="32.5" y="42"/><rect height="7" width="2" x="27.5" y="42"/><rect height="7" width="2" x="22.5" y="42"/><rect height="7" width="2" x="17.5" y="42"/><rect height="7" width="2" x="12.5" y="42"/></g></svg>