<?xml version="1.0" ?><!DOCTYPE svg  PUBLIC '-//W3C//DTD SVG 1.1//EN'  'http://www.w3.org/Graphics/SVG/1.1/DTD/svg11.dtd'><svg enable-background="new 0 0 24 24" height="24px" id="Layer_1" version="1.1" viewBox="0 0 24 24" width="24px" xml:space="preserve" xmlns="http://www.w3.org/2000/svg" xmlns:xlink="http://www.w3.org/1999/xlink"><g><path d="M22.8,11.3l-2.1-1c-0.4-0.2-0.9-0.2-1.3,0l-7.1,3.2c-0.2,0.1-0.4,0.1-0.5,0l-7.1-3.2c-0.4-0.2-0.9-0.2-1.3,0l-2.1,1   c-0.3,0.1-0.5,0.4-0.5,0.8c0,0.3,0.2,0.6,0.5,0.8l10.1,4.6c0.2,0.1,0.4,0.1,0.7,0.1s0.5-0.1,0.7-0.1l10.1-4.6   c0.3-0.1,0.5-0.4,0.5-0.8C23.3,11.7,23.1,11.4,22.8,11.3z"/><path d="M22.8,17.2l-2.1-1c-0.4-0.2-0.9-0.2-1.3,0l-7.1,3.2c-0.2,0.1-0.4,0.1-0.5,0l-7.1-3.2c-0.4-0.2-0.9-0.2-1.3,0l-2.1,1   c-0.3,0.1-0.5,0.4-0.5,0.8c0,0.3,0.2,0.6,0.5,0.8l10.1,4.6c0.2,0.1,0.4,0.1,0.7,0.1c0.2,0,0.5-0.1,0.7-0.1l10.1-4.6   c0.3-0.1,0.5-0.4,0.5-0.8C23.3,17.6,23.1,17.3,22.8,17.2z"/><path d="M1.2,6.9l10.1,4.6c0.2,0.1,0.4,0.1,0.7,0.1s0.5-0.1,0.7-0.1l10.1-4.6c0.3-0.1,0.5-0.4,0.5-0.8c0-0.3-0.2-0.6-0.5-0.8   l-10-4.6c-0.5-0.2-1-0.2-1.5,0l-10,4.6C0.9,5.4,0.7,5.7,0.7,6.1C0.7,6.4,0.9,6.7,1.2,6.9z"/></g></svg>