<?xml version="1.0" ?><svg enable-background="new 0 0 52 52" id="Layer_1" version="1.1" viewBox="0 0 52 52" xml:space="preserve" xmlns="http://www.w3.org/2000/svg" xmlns:xlink="http://www.w3.org/1999/xlink"><rect fill="none" height="2" width="10" x="21" y="25"/><rect fill="none" height="2" width="10" x="21" y="25"/><rect fill="none" height="2" width="4" x="24" y="25"/><g><path d="M49,36h0.7600098l-2.8200073-10.2200317H28V7H11c-0.4499512,0-0.8499756,0.2999878-0.9699707,0.7399902L2.2300415,36H3H49z   "/><path d="M2,49c0,0.5499878,0.4400024,1,1,1h46c0.5500488,0,1-0.4500122,1-1V38H2V49z M7.996582,42.0013428h4v2h-4V42.0013428z"/><path d="M45,2v7H35V2h-5v21.7799683h20V2H45z M44.996582,20.0013428h-10v-2h10V20.0013428z M44.996582,15.1199951h-10v-2h10   V15.1199951z"/></g></svg>