<?xml version="1.0" ?><svg enable-background="new 0 0 52 52" id="Layer_1" version="1.1" viewBox="0 0 52 52" xml:space="preserve" xmlns="http://www.w3.org/2000/svg" xmlns:xlink="http://www.w3.org/1999/xlink"><polygon points="28.5070801,44.5 26.5070801,44.5 26.5070801,9.5419922 23.4929199,9.5 23.5212402,7.5 28.5070801,7.5703125 "/><path d="M4,12v28h44V12H4z M23,33h-0.9957886v2.0046997h-2V33h-3v2.0046997h-2V33h-3v2.0046997h-2V33H9V18h1.0042114v-1.9953003h2  V18h3v-1.9953003h2V18h3v-1.9953003h2V18H23V33z M42.1300049,32.6799927C42.1300049,33.4099731,41.5599976,34,40.8599854,34  c-0.2099609,0-0.4199829-0.0500488-0.6099854-0.1600342l-5.6499634-3.2399902h-5.4500122  c-0.7000122,0-1.2700195-0.5999756-1.2700195-1.3300171v-6.5299683c0-0.7300415,0.5700073-1.3300171,1.2700195-1.3300171h5.4500122  L40.25,18.1699829C40.4400024,18.0599976,40.6500244,18,40.8599854,18c0.7000122,0,1.2700195,0.5999756,1.2700195,1.3299561  V32.6799927z"/></svg>