<?xml version="1.0" ?><!DOCTYPE svg  PUBLIC '-//W3C//DTD SVG 1.1//EN'  'http://www.w3.org/Graphics/SVG/1.1/DTD/svg11.dtd'><svg height="512px" style="enable-background:new 0 0 512 512;" version="1.1" viewBox="0 0 512 512" width="512px" xml:space="preserve" xmlns="http://www.w3.org/2000/svg" xmlns:xlink="http://www.w3.org/1999/xlink"><g id="_x32_25_x2C__folder__x2C__data_x2C__server_x2C__storage"><g id="XMLID_12171_"><path d="M196.786,60.289c-0.845,0-1.673-0.229-2.397-0.664L148.897,32.33H52.293l-2.687,310.91    c0,14.004,11.188,24.595,26.025,24.595c14.589,0,23.299-8.71,23.299-23.299V111.547c0-2.573,2.087-4.66,4.66-4.66h358.803V60.289    H196.786z" id="XMLID_12172_"/><path d="M108.25,344.536c0,0.611-0.013,1.216-0.036,1.813c-0.009,0.204-0.026,0.402-0.037,0.604    c-0.021,0.391-0.041,0.783-0.072,1.168c-0.02,0.239-0.049,0.473-0.072,0.709c-0.034,0.341-0.065,0.685-0.107,1.021    c-0.031,0.248-0.072,0.49-0.107,0.736c-0.046,0.318-0.09,0.638-0.143,0.95c-0.043,0.251-0.095,0.494-0.142,0.741    c-0.059,0.302-0.113,0.605-0.178,0.903c-0.055,0.248-0.117,0.49-0.176,0.735c-0.068,0.288-0.136,0.578-0.211,0.862    c-0.065,0.245-0.139,0.484-0.209,0.726c-0.081,0.276-0.159,0.554-0.245,0.826c-0.077,0.24-0.161,0.476-0.242,0.712    c-0.091,0.266-0.181,0.531-0.278,0.793c-0.087,0.234-0.182,0.465-0.274,0.696c-0.102,0.254-0.202,0.509-0.31,0.76    c-0.099,0.229-0.204,0.452-0.308,0.678c-0.112,0.244-0.224,0.489-0.342,0.729c-0.109,0.222-0.224,0.438-0.338,0.656    c-0.123,0.235-0.245,0.472-0.375,0.703c-0.118,0.213-0.242,0.42-0.366,0.63c-0.134,0.227-0.268,0.454-0.407,0.676    c-0.129,0.204-0.262,0.404-0.395,0.604c-0.146,0.219-0.29,0.437-0.441,0.65c-0.138,0.195-0.279,0.387-0.422,0.577    c-0.155,0.211-0.312,0.419-0.473,0.624c-0.147,0.187-0.298,0.368-0.449,0.551c-0.167,0.201-0.334,0.401-0.506,0.597    c-0.155,0.177-0.313,0.35-0.474,0.522c-0.105,0.112-0.205,0.232-0.313,0.344h151.538v46.937    c-14.264,2.05-25.571,13.357-27.621,27.62H84.951c-2.573,0-4.659,2.086-4.659,4.66c0,2.573,2.086,4.659,4.659,4.659H223.72    c2.269,15.786,15.877,27.959,32.28,27.959c16.514,0,30.19-12.338,32.321-28.277c0.518,0.198,1.073,0.318,1.66,0.318h130.475    c2.573,0,4.659-2.086,4.659-4.659c0-2.574-2.086-4.66-4.659-4.66H289.981c-0.587,0-1.143,0.12-1.66,0.318    c-1.927-14.411-13.292-25.873-27.661-27.938v-46.937h201.733v-41.938c0,2.573-2.086,4.659-4.659,4.659H271.343    c-2.573,0-4.66-2.086-4.66-4.659c0-2.574,2.087-4.66,4.66-4.66h186.392c2.573,0,4.659,2.086,4.659,4.66V116.206H108.25V344.536z     M420.456,139.505h18.639v18.64h-18.639V139.505z M392.497,139.505h18.64v18.64h-18.64V139.505z M364.538,139.505h18.64v18.64    h-18.64V139.505z M234.064,330.557h-55.917c-2.573,0-4.66-2.086-4.66-4.659c0-2.574,2.087-4.66,4.66-4.66h55.917    c2.573,0,4.66,2.086,4.66,4.66C238.725,328.471,236.638,330.557,234.064,330.557z M140.869,144.165h121.154    c2.573,0,4.659,2.087,4.659,4.66s-2.086,4.659-4.659,4.659H140.869c-2.573,0-4.66-2.086-4.66-4.659    S138.296,144.165,140.869,144.165z M140.869,181.443h121.154c2.573,0,4.659,2.086,4.659,4.66c0,2.573-2.086,4.659-4.659,4.659    H140.869c-2.573,0-4.66-2.086-4.66-4.659C136.209,183.529,138.296,181.443,140.869,181.443z" id="XMLID_12173_"/></g></g><g id="Layer_1"/></svg>