<?xml version="1.0" ?><svg enable-background="new 0 0 52 52" id="Layer_1" version="1.1" viewBox="0 0 52 52" xml:space="preserve" xmlns="http://www.w3.org/2000/svg" xmlns:xlink="http://www.w3.org/1999/xlink"><path d="M13.9986877,27.4981689v8.0036621H4.0013123v-14h35v-5.0036621h4.9973755v-8h-1.9973755V6.5018311h-2v1.9963379h-4  V6.5018311h-2v1.9963379h-2.0026245v8h5.0026245v3.0036621h-35v18h11.9973755v7.9963379h36v-18H13.9986877z M18.0013123,39.5018311  h-2v-6h2V39.5018311z M27.9986877,40.4981689c-2.2000122,0-4-1.789978-4-4c0-2.2000122,1.7999878-4,4-4c2.210022,0,4,1.7999878,4,4  C31.9986877,38.7081909,30.2087097,40.4981689,27.9986877,40.4981689z M40.9986877,41.4981689c-2.75,0-5-2.2399902-5-5  c0-2.75,2.25-5,5-5c2.7600098,0,5,2.25,5,5C45.9986877,39.2581787,43.7586975,41.4981689,40.9986877,41.4981689z"/></svg>