<?xml version="1.0" ?><!DOCTYPE svg  PUBLIC '-//W3C//DTD SVG 1.1//EN'  'http://www.w3.org/Graphics/SVG/1.1/DTD/svg11.dtd'><svg enable-background="new 0 0 24 24" height="24px" id="Layer_1" version="1.1" viewBox="0 0 24 24" width="24px" xml:space="preserve" xmlns="http://www.w3.org/2000/svg" xmlns:xlink="http://www.w3.org/1999/xlink"><path d="M19.7,0.5H4.3c-2.1,0-3.8,1.7-3.8,3.8v15.4c0,2.1,1.7,3.8,3.8,3.8h15.4c2.1,0,3.8-1.7,3.8-3.8V4.3  C23.5,2.2,21.8,0.5,19.7,0.5z M6.4,17.9c0,0.3-0.2,0.5-0.5,0.5s-0.5-0.2-0.5-0.5v-2.4C5.5,15.3,5.7,15,6,15s0.5,0.2,0.5,0.5V17.9z   M8.9,17.9c0,0.3-0.2,0.5-0.5,0.5s-0.5-0.2-0.5-0.5V12c0-0.3,0.2-0.5,0.5-0.5s0.5,0.2,0.5,0.5V17.9z M11.3,17.9  c0,0.3-0.2,0.5-0.5,0.5s-0.5-0.2-0.5-0.5v-4.1c0-0.3,0.2-0.5,0.5-0.5s0.5,0.2,0.5,0.5V17.9z M13.7,17.9c0,0.3-0.2,0.5-0.5,0.5  s-0.5-0.2-0.5-0.5v-7.6c0-0.3,0.2-0.5,0.5-0.5s0.5,0.2,0.5,0.5V17.9z M16.1,17.9c0,0.3-0.2,0.5-0.5,0.5s-0.5-0.2-0.5-0.5V12  c0-0.3,0.2-0.5,0.5-0.5s0.5,0.2,0.5,0.5V17.9z M18.5,17.9c0,0.3-0.2,0.5-0.5,0.5s-0.5-0.2-0.5-0.5V8.6c0-0.3,0.2-0.5,0.5-0.5  s0.5,0.2,0.5,0.5V17.9z M18,6.6H6c-0.3,0-0.5-0.2-0.5-0.5S5.7,5.6,6,5.6H18c0.3,0,0.5,0.2,0.5,0.5S18.3,6.6,18,6.6z"/></svg>