<?xml version="1.0" ?><!DOCTYPE svg  PUBLIC '-//W3C//DTD SVG 1.1//EN'  'http://www.w3.org/Graphics/SVG/1.1/DTD/svg11.dtd'><svg height="512px" style="enable-background:new 0 0 512 512;" version="1.1" viewBox="0 0 512 512" width="512px" xml:space="preserve" xmlns="http://www.w3.org/2000/svg" xmlns:xlink="http://www.w3.org/1999/xlink"><g id="_x32_23_x2C__Analytics_x2C__chart_x2C__seo_x2C__web_x2C__Setting"><g><path d="M438.153,112.771c-2.867-2.865-6.801-4.606-11.125-4.606    c-102.604,0-205.208,0-307.808,0c-4.327,0-8.261,1.741-11.097,4.606c-2.867,2.838-4.636,6.8-4.636,11.127v221.64    c0,4.327,1.769,8.261,4.636,11.098c2.836,2.866,6.77,4.636,11.097,4.636c102.6,0,205.204,0,307.808,0    c4.324,0,8.258-1.77,11.125-4.636c2.836-2.837,4.608-6.771,4.608-11.098v-221.64C442.762,119.571,441.018,115.609,438.153,112.771     M309.871,368.184h-73.496l-14.638,55.599h102.772L309.871,368.184z M171.337,430.694v14.356h203.575v-14.356    C307.063,430.694,239.214,430.694,171.337,430.694z M423.066,301.682v-173.99H122.45v173.99H423.066z M429.977,124.234v180.903    c0,1.911-1.544,3.456-3.453,3.456H118.996c-1.913,0-3.457-1.545-3.457-3.456V124.234c0-1.91,1.544-3.455,3.457-3.455h307.527    C428.433,120.779,429.977,122.324,429.977,124.234z M275.793,342.055c-0.674-0.703-1.632-1.124-2.67-1.124    c-1.039,0-1.994,0.421-2.668,1.124c-0.674,0.674-1.098,1.629-1.098,2.669s0.424,1.995,1.098,2.669s1.629,1.096,2.668,1.096    c1.038,0,1.996-0.422,2.67-1.096s1.123-1.629,1.123-2.669S276.467,342.729,275.793,342.055z M273.123,334.048    c2.951,0,5.618,1.18,7.559,3.118c1.938,1.938,3.117,4.607,3.117,7.558s-1.18,5.618-3.117,7.558    c-1.94,1.938-4.607,3.118-7.559,3.118c-2.948,0-5.619-1.18-7.557-3.118c-1.94-1.939-3.12-4.607-3.12-7.558s1.18-5.619,3.12-7.558    C267.504,335.228,270.175,334.048,273.123,334.048z M54.46,405.914H38.278v27.084H54.46V405.914z M330.296,181.914h-9.272v75.154    h9.272V181.914z M317.57,175.002h16.154c1.91,0,3.453,1.545,3.453,3.457v82.064c0,1.91-1.543,3.455-3.453,3.455H317.57    c-1.912,0-3.457-1.545-3.457-3.455v-82.064C314.113,176.547,315.658,175.002,317.57,175.002z M303.831,192.084h-9.272v64.984    h9.272V192.084z M291.134,185.173h16.154c1.909,0,3.453,1.573,3.453,3.456v71.895c0,1.91-1.544,3.455-3.453,3.455h-16.154    c-1.913,0-3.457-1.545-3.457-3.455v-71.895C287.677,186.746,289.221,185.173,291.134,185.173z M277.394,201.974h-9.271v55.095    h9.271V201.974z M264.668,195.063h16.183c1.909,0,3.453,1.545,3.453,3.455v62.006c0,1.91-1.544,3.455-3.453,3.455h-16.183    c-1.885,0-3.457-1.545-3.457-3.455v-62.006C261.211,196.607,262.783,195.063,264.668,195.063z M250.957,215.74h-9.272v41.328    h9.272V215.74z M238.231,208.857h16.182c1.881,0,3.425,1.545,3.425,3.455v48.211c0,1.91-1.544,3.455-3.425,3.455h-16.182    c-1.913,0-3.457-1.545-3.457-3.455v-48.211C234.774,210.402,236.319,208.857,238.231,208.857z M224.492,230.125h-9.244v26.943    h9.244V230.125z M211.791,223.213h16.158c1.909,0,3.453,1.574,3.453,3.456v33.854c0,1.91-1.544,3.455-3.453,3.455h-16.158    c-1.909,0-3.454-1.545-3.454-3.455v-33.854C208.337,224.787,209.882,223.213,211.791,223.213z M271.41,101.254h137.607    c-0.702-1.236-1.572-2.36-2.555-3.344c-0.898-0.787-1.379-2.051-1.099-3.314l0.341-2.023l0.112-2.136    c0-5.422-2.222-10.311-5.735-13.851c-3.537-3.539-8.454-5.731-13.876-5.731c-1.292,0-2.53,0.112-3.682,0.337l-0.112,0.028    c-1.291,0.253-2.498,0.618-3.625,1.067c-0.59,0.254-1.207,0.338-1.854,0.225c-1.881-0.281-3.147-2.051-2.863-3.933l0.196-1.573    l0.056-1.574c0-5.422-2.221-10.311-5.762-13.878c-3.538-3.54-8.427-5.731-13.849-5.731c-6.771,0-12.926,3.4-16.548,9.103    l-0.056,0.056c-0.986,1.631-3.092,2.137-4.72,1.152c-1.268-0.758-2.644-1.377-4.075-1.77c-1.376-0.394-2.867-0.619-4.411-0.619    c-4.019,0-7.697,1.461-10.508,3.85c-2.892,2.444-4.917,5.873-5.563,9.749c-0.253,1.63-1.685,2.894-3.401,2.866l-0.364,0.027    c-4.468,0-8.539,1.826-11.49,4.748c-2.92,2.951-4.748,6.996-4.748,11.49l0.056,1.377l0.196,1.967    c-0.056,1.799-1.487,3.23-3.257,3.344h-0.337c-3.794,0-7.278,1.292-10.03,3.455C273.824,97.882,272.449,99.455,271.41,101.254z     M96.574,135.922v-12.023c0-6.209,2.559-11.885,6.661-15.986c4.127-4.13,9.777-6.658,15.986-6.658h9.3    c-0.453-0.534-0.93-1.068-1.407-1.545c-4.299-4.299-10.255-6.969-16.828-6.969c-6.545,0-12.501,2.67-16.8,6.969    c-4.299,4.298-6.97,10.254-6.97,16.8c0,6.489,2.615,12.39,6.801,16.661l0.168,0.168C94.44,134.266,95.479,135.164,96.574,135.922z     M96.574,171.49v-27.533c-2.948-1.488-5.646-3.428-7.977-5.73l-0.168-0.197c-5.45-5.563-8.823-13.148-8.823-21.521    c0-8.456,3.457-16.126,8.991-21.688c5.563-5.535,13.231-8.99,21.689-8.99c8.486,0,16.154,3.455,21.717,8.99    c1.913,1.91,3.541,4.073,4.917,6.434h27.954c-2.639-9.412-7.641-17.896-14.522-24.78c-9.665-9.692-22.815-15.874-37.422-16.548    h-0.084l-0.424-0.027h-0.084l-0.786-0.029h-0.084h-0.084h-0.112h-0.084H111.1h-0.084l0,0h-0.084h-0.084h-0.112h-0.084h-0.084    h-0.084h-0.084h-0.112h-0.084h-0.084h-0.084h-0.084h-0.112h-0.084h-0.084h-0.084h-0.028H109.5h-0.112h-0.084h-0.084h-0.084h-0.084    l-0.786,0.029h-0.084l-0.421,0.027h-0.084c-14.048,0.646-27.395,6.518-37.425,16.548c-9.662,9.665-15.874,22.813-16.547,37.394    v0.113l-0.028,0.422v0.084v0.786v0.085l-0.028,0.084v0.084v0.084v0.113v0.057v0.027v0.084v0.084v0.085v0.112v0.084v0.084v0.084    v0.085v0.112v0.084v0.085v0.084v0.085v0.112l0,0v0.084v0.085v0.084v0.084v0.084v0.112h0.028v0.085v0.084v0.787v0.084    c0.084,2.191,0.309,4.354,0.618,6.49l0.028,0.084l0.028,0.252l0.028,0.084v0.057l0.056,0.281v0.084l0.028,0.084v0.085l0,0    l0.028,0.085l0.028,0.168v0.084l0.028,0.169l0,0l0.028,0.084v0.085l0.056,0.252l0.028,0.085v0.028v0.056l0.028,0.085v0.084    c1.969,9.973,6.633,19.357,13.403,26.914l0.056,0.057l0.056,0.084l0.056,0.057l0.084,0.056l0.028,0.028l0.028,0.028l0.056,0.084    l0.056,0.056l0.056,0.057l0.056,0.057l0.056,0.057l0.056,0.084l0.056,0.057l0.028,0.027l0.028,0.028l0.056,0.056l0.056,0.084    l0.056,0.057l0.056,0.057l0.056,0.056l0.084,0.056l0.056,0.085l0.028,0.028l0.028,0.027l0.056,0.057l0.056,0.057l0.056,0.084    l0.056,0.057l0.084,0.056l0.056,0.056l0.056,0.057v0.028l0.056,0.056l0.056,0.057l0.056,0.057l0.056,0.057l0.084,0.084    l0.056,0.056l0.056,0.056l0.056,0.057l0,0l0.056,0.057l0.084,0.056l0.056,0.085l0.056,0.056l0.056,0.056l0.028,0.028l0.056,0.028    l0.056,0.057l0.056,0.084l0.056,0.056l0.056,0.056l0.087,0.057l0,0l0.056,0.057l0.056,0.057l0.056,0.056l0.084,0.084l0.056,0.057    l0.028,0.028l0.028,0.027l0.056,0.057l0.084,0.057l0.056,0.056l0.056,0.056l0.056,0.057l0,0l0.056,0.084l0.084,0.057l0.056,0.057    l0.056,0.056l0.084,0.084l0.056,0.028l0.056,0.057l0.056,0.056l0.141,0.112l0.056,0.057l0,0l0.056,0.057l0.056,0.056    C79.185,164.748,87.446,169.243,96.574,171.49z M102.28,53.464c1.994-0.253,4.015-0.394,6.068-0.478h0.084h0.196h0.028h0.056    h0.112h0.084h0.084h0.112h0.084l0.084-0.027h0.112h0.084l0,0h0.084h0.084h0.112h0.084h0.084h0.084h0.112h0.084h0.084h0.112h0.084    h0.084h0.084h0.112h0.084h0.084h0.112h0.084l0,0h0.084h0.112l0.084,0.027h0.084h0.112h0.084h0.084h0.112h0.056h0.028h0.196h0.084    c2.053,0.084,4.074,0.225,6.071,0.478v-16.21H102.28V53.464z M149.224,66.275c2.109,1.629,4.13,3.399,6.015,5.311    c1.881,1.881,3.65,3.904,5.31,6.012l11.462-11.463l-11.322-11.322L149.224,66.275z M71.404,166.771    c-1.436-1.125-2.643-2.164-3.962-3.344l-0.056-0.028l-0.084-0.112l-0.084-0.057l-0.14-0.141l-0.056-0.056l-0.141-0.14    l-0.084-0.057l-0.056-0.057l-0.084-0.084l-0.056-0.057l-0.028-0.027l-0.028-0.029l-0.084-0.084l-0.056-0.056l-0.084-0.057    l-0.056-0.056l-0.084-0.085l0,0l-0.056-0.056c-1.407-1.405-2.811-2.81-4.046-4.326l-0.084-0.057l-0.056-0.084l-0.056-0.057    l-0.056-0.084l-0.056-0.057l0,0l-0.084-0.084l-0.056-0.084l-0.056-0.057l-0.056-0.084l-0.056-0.057    c-0.478-0.59-0.955-1.152-1.407-1.742l-11.462,11.463l11.322,11.351L71.404,166.771z M47.241,124.516    c-0.252-1.938-0.393-3.934-0.449-5.955l-0.028-0.085v-0.112v-0.814v-0.113v-0.084l-0.028-0.084v-0.112V117.1v-0.028v-0.085v-0.112    v-0.084v-0.085v-0.084v-0.112v-0.085v-0.084v-0.084v-0.112v-0.084v-0.085v-0.111v-0.084v-0.085h0.028v-0.085v-0.111v-0.084v-0.086    v-0.111v-0.084v-0.085v-0.112v-0.057v-0.027v-0.197v-0.084c0.084-2.051,0.225-4.073,0.477-6.068H31.03v16.014H47.241z     M200.778,272.042h143.96H200.778z M213.03,215.571c-1.8,0.646-3.766-0.253-4.439-2.022c-0.646-1.799,0.252-3.766,2.021-4.439    c0.168-0.057,52.621-18.936,81.139-46.581l-4.692,0.141c-1.912,0.056-3.484-1.433-3.541-3.315c-0.056-1.91,1.432-3.484,3.316-3.54    l12.895-0.421h0.084h0.056h0.197h0.056h0.028h0.056h0.028h0.057h0.027h0.057h0.028l0.14,0.027h0.028l0.057,0.028h0.027h0.057    l0.028,0.028h0.056h0.028l0.06,0.027h0.028h0.027l0.057,0.029h0.028l0.056,0.027h0.028l0.028,0.028h0.056l0.028,0.028h0.056    l0.028,0.027l0.057,0.028h0.027l0.337,0.169l0.028,0.027l0.057,0.029v0.027l0.196,0.113h0.028l0.056,0.056l0,0l0.057,0.056l0,0    l0.084,0.057l0.056,0.057l0,0l0.057,0.057l0,0l0.196,0.195l0.028,0.029l0.028,0.027l0.027,0.028l0.057,0.084l0.028,0.028    c0.084,0.112,0.168,0.252,0.252,0.365l0.028,0.056v0.028l0.028,0.057l0.028,0.027l0.027,0.028v0.028l0.028,0.057v0.027    l0.028,0.057l0.028,0.027v0.028l0.027,0.028v0.057l0.028,0.027v0.057l0.028,0.028v0.056l0.028,0.028v0.056l0.027,0.029v0.027    v0.057l0.028,0.027v0.057v0.027l0.028,0.057v0.084l0.028,0.028v0.056v0.029v0.056l0.027,0.028v0.056v0.028v0.057v0.027v0.057l0,0    v0.084v0.338v0.084l-0.309,13.514c-0.028,1.91-1.601,3.399-3.513,3.371c-1.881-0.027-3.397-1.602-3.369-3.512l0.112-4.861    C266.605,196.299,213.17,215.487,213.03,215.571z M146.444,151.291c-1.909,0-3.457-1.545-3.457-3.457    c0-1.91,1.547-3.455,3.457-3.455h54.166c1.885,0,3.457,1.545,3.457,3.455c0,1.912-1.572,3.457-3.457,3.457H146.444z     M146.444,167.023c-1.909,0-3.457-1.545-3.457-3.455s1.547-3.456,3.457-3.456h54.166c1.885,0,3.457,1.546,3.457,3.456    s-1.572,3.455-3.457,3.455H146.444z M43.054,411.112H54.46v16.688H43.054V411.112z M29.458,460.361    c-1.913,0-3.457-1.545-3.457-3.455s1.544-3.456,3.457-3.456H54.46c0-20.931,0-41.889,0-62.819h48.382c0,24.695,0-4.748,0,62.819    h224.226c1.881,0,3.453,1.546,3.453,3.456s-1.572,3.455-3.453,3.455H29.458z M229.802,474.747c-1.909,0-3.457-1.546-3.457-3.456    c0-1.911,1.548-3.456,3.457-3.456h205.934c1.885,0,3.457,1.545,3.457,3.456c0,1.91-1.572,3.456-3.457,3.456H229.802z     M456.807,474.747c-1.909,0-3.453-1.546-3.453-3.456c0-1.911,1.544-3.456,3.453-3.456h25.735c1.912,0,3.457,1.545,3.457,3.456    c0,1.91-1.545,3.456-3.457,3.456H456.807z M71.656,474.297c-1.884,0-3.457-1.545-3.457-3.456c0-1.882,1.572-3.455,3.457-3.455    h97.6c1.884,0,3.457,1.573,3.457,3.455c0,1.911-1.572,3.456-3.457,3.456H71.656z M458.102,212.565    c0-1.911,1.544-3.456,3.453-3.456c1.913,0,3.457,1.545,3.457,3.456v129.461c0,1.91-1.544,3.456-3.457,3.456    c-1.909,0-3.453-1.546-3.453-3.456V212.565z M60.051,77.598c1.66-2.107,3.429-4.131,5.31-6.012    c1.885-1.883,3.906-3.682,6.015-5.311L59.91,54.813L48.588,66.135L60.051,77.598z" style="fill-rule:evenodd;clip-rule:evenodd;"/></g></g><g id="Layer_1"/></svg>