<?xml version="1.0" ?><!DOCTYPE svg  PUBLIC '-//W3C//DTD SVG 1.1//EN'  'http://www.w3.org/Graphics/SVG/1.1/DTD/svg11.dtd'><svg height="512px" style="enable-background:new 0 0 512 512;" version="1.1" viewBox="0 0 512 512" width="512px" xml:space="preserve" xmlns="http://www.w3.org/2000/svg" xmlns:xlink="http://www.w3.org/1999/xlink"><g id="_x34_13_x2C_Fingertouch_x2C_global_x2C_network_x2C_globalization_x2C_globe"><g><path d="M284.819,58.355c4.017,7.74,7.471,16.27,10.329,25.395c11.664-2.859,23.299-6.539,34.896-11.043    c-16.824-20.895-40.174-36.217-66.886-42.777C271.19,36.66,278.526,46.225,284.819,58.355z"/><path d="M229.883,99.18c-17.206-0.285-34.431-2.289-51.646-6.01c-4.48,16.637-6.984,35.117-7.29,54.359h58.937V99.18z"/><path d="M182.964,58.355c6.292-12.133,13.627-21.697,21.657-28.43c-26.708,6.557-50.057,21.873-66.882,42.758    c11.629,4.473,23.274,8.137,34.926,10.988C175.518,74.576,178.961,66.074,182.964,58.355z"/><path d="M180.494,85.461c16.464,3.518,32.936,5.418,49.389,5.699V26.629c-14.854,1.895-28.866,14.293-39.817,35.41    C186.361,69.182,183.167,77.049,180.494,85.461z"/><path d="M229.883,155.529h-58.937c0.306,19.236,2.811,37.711,7.29,54.346c17.235-3.74,34.479-5.771,51.646-6.074V155.529z"/><path d="M170.446,91.375c-12.58-3.098-25.152-7.121-37.707-12.057c-13.618,19.398-21.904,42.867-22.696,68.211h52.903    C163.253,127.709,165.831,108.625,170.446,91.375z"/><path d="M182.964,244.684c-4.003-7.717-7.445-16.217-10.297-25.309c-11.658,2.865-23.309,6.535-34.923,11.008    c16.834,20.895,40.197,36.213,66.921,42.762C196.618,266.412,189.268,256.836,182.964,244.684z"/><path d="M162.946,155.529h-52.903c0.792,25.348,9.079,48.816,22.698,68.215c12.534-4.93,25.114-8.951,37.708-12.063    C165.832,194.432,163.253,175.35,162.946,155.529z"/><path d="M229.883,276.406v-64.605c-16.407,0.299-32.899,2.229-49.392,5.771c2.674,8.414,5.869,16.283,9.574,23.428    C201.018,262.115,215.029,274.512,229.883,276.406z"/><path d="M304.845,147.529h52.878c-0.792-25.338-9.073-48.799-22.685-68.193c-12.519,4.969-25.081,9.01-37.676,12.117    C301.967,108.684,304.538,127.738,304.845,147.529z"/><path d="M332.777,226.918c15.565-20.783,24.138-45.371,24.937-71.389h-52.852c-0.295,18.576-2.65,36.891-6.866,53.555    c2.615-0.803,5.48-1.232,8.469-1.232c12.009,0,24.772,6.689,24.772,19.084v0.916C331.731,227.521,332.244,227.211,332.777,226.918    z"/><path d="M277.718,62.039c-10.956-21.117-24.974-33.518-39.835-35.41v64.539c16.513-0.244,33.001-2.121,49.438-5.627    C284.641,77.1,281.436,69.205,277.718,62.039z"/><path d="M292.025,199.43c2.938-13.906,4.59-28.803,4.837-43.9h-5.961c1.06,2.666,1.454,5.625,1.124,8.783V199.43z"/><path d="M245.018,275.959V211.99c-2.376-0.104-4.754-0.172-7.135-0.205v64.809c1.841-0.063,3.695-0.172,5.557-0.318    C243.978,276.189,244.503,276.084,245.018,275.959z"/><path d="M245.018,164.094c0-3.113,0.605-5.988,1.755-8.564h-8.89v48.258c2.381,0.031,4.759,0.098,7.135,0.197V164.094z"/><path d="M252.944,147.912c0.931-0.693,1.929-1.336,3.011-1.906c8.607-4.537,20.469-3.99,28.202,1.305    c0.104,0.07,0.199,0.146,0.301,0.219h12.388c-0.306-19.211-2.804-37.662-7.272-54.281c-17.186,3.711-34.427,5.691-51.69,5.939    v48.342h15.062V147.912z"/><path d="M385.179,250.764c-4.017,0-7.614,1.092-10.131,3.074c-2.721,2.143-4.1,5.264-4.1,9.277v75.609h-4l-4,0.025l-0.601-95.771    c0-6.963-8.528-11.109-16.773-11.109c-4.073,0-7.716,1.018-10.258,2.863c-2.639,1.918-3.977,4.684-3.977,8.221v101.068h-0.103    v0.051h-8V226.936c0-6.938-8.528-11.084-16.772-11.084c-4.074,0-7.717,1.018-10.259,2.863c-2.639,1.918-3.977,4.684-3.977,8.221    c0,21.307-0.052,38.754-0.103,55.625c-0.05,16.867-0.102,34.307-0.102,55.602h-8c0-0.189,0-0.373,0-0.563V163.863l0.026-0.23    c0.477-4.119-1.009-7.389-4.415-9.721c-5.338-3.654-13.914-4.012-19.951-0.83c-3.041,1.605-6.668,4.816-6.668,11.012v171.773    c0.099-0.01,0.195-0.014,0.293-0.023l0.779,7.963c-12.258,1.195-23.086-1.918-29.715-8.547    c-4.468-4.469-5.894-10.479-7.152-15.781c-1.607-6.779-2.822-11.041-7.355-13.154c-10.258-4.777-21.277-3.953-26.797,2.006    c-5.055,5.457-4.681,14.404,1.025,24.545c0.277,0.492,0.795,1.107,1.344,1.76c1.32,1.57,2.965,3.525,3.541,6.33    c5.04,23.986,25.018,36.24,48.148,50.428c8.531,5.23,17.354,10.643,25.918,16.961l1.625,1.199v75.162h108.095    c0.573-14.408,2.925-32.781,14.138-38.291l7.999-5.084c2.351-1.494,4.701-2.986,7.054-4.482V263.115    C401.957,255.383,393.427,250.764,385.179,250.764z"/></g></g><g id="Layer_1"/></svg>