<?xml version="1.0" ?><!DOCTYPE svg  PUBLIC '-//W3C//DTD SVG 1.1//EN'  'http://www.w3.org/Graphics/SVG/1.1/DTD/svg11.dtd'><svg height="512px" style="enable-background:new 0 0 512 512;" version="1.1" viewBox="0 0 512 512" width="512px" xml:space="preserve" xmlns="http://www.w3.org/2000/svg" xmlns:xlink="http://www.w3.org/1999/xlink"><g id="C_-_46_x2C__Analysis_x2C__analytic_x2C__analytics_x2C__chart_x2C__data_x2C__graph"><g><polygon points="176.562,260.685 45.156,260.685 45.156,322.819 145.346,322.819   "/><polygon points="417.472,424.652 413.233,428.873 413.229,428.877 408.354,433.729 438.67,463.903 464.887,437.814     434.565,407.637   "/><polygon points="45.156,404.296 45.156,459.24 100.36,404.296   "/><polygon points="51.818,465.832 255.326,465.832 255.326,404.296 113.645,404.296   "/><path d="M235.026,281.832c0.587-1.18,1.197-2.348,1.831-3.506c0.06-0.109,0.122-0.22,0.182-0.329    c1.29-2.337,2.673-4.628,4.15-6.868c0.07-0.106,0.139-0.214,0.209-0.32c0.715-1.075,1.452-2.137,2.208-3.187    c0.107-0.149,0.215-0.296,0.323-0.444c0.77-1.058,1.557-2.104,2.37-3.134c0.038-0.05,0.08-0.098,0.118-0.147    c0.795-1.004,1.611-1.993,2.447-2.972c0.067-0.078,0.13-0.161,0.198-0.24h-53.553l34.18,34.022    c0.107-0.321,0.221-0.64,0.332-0.959c0.025-0.076,0.051-0.15,0.078-0.226c0.446-1.274,0.915-2.539,1.411-3.793    c0.024-0.061,0.048-0.122,0.073-0.183c1.002-2.523,2.106-5.006,3.31-7.442C234.938,282.014,234.981,281.923,235.026,281.832z"/><path d="M224.762,318.469c0.366-4.235,0.989-8.416,1.862-12.526c0.012-0.058,0.025-0.115,0.037-0.173    c0.05-0.235,0.098-0.471,0.149-0.705l-41.37-41.179l-29.607,58.934h68.643c0.063-1.423,0.157-2.84,0.278-4.252    C224.756,318.535,224.759,318.502,224.762,318.469z"/><path d="M258.264,251.239c0.384-0.349,0.773-0.689,1.162-1.031c0.215-0.188,0.428-0.38,0.645-0.566    c0.484-0.42,0.975-0.832,1.467-1.242c0.117-0.097,0.232-0.197,0.35-0.293c0.572-0.472,1.15-0.937,1.73-1.396    c0.031-0.025,0.062-0.049,0.093-0.074c18.183-14.346,40.529-22.134,64.081-22.134c14.748,0,29.024,3.055,42.104,8.86l22.195-44.18    H45.156v62.131h213.022C258.207,251.288,258.236,251.263,258.264,251.239z"/><polygon points="460.18,117.675 45.156,117.675 45.156,179.812 397.752,179.812   "/><path d="M119.908,394.327h129.238c-0.067-0.079-0.13-0.16-0.197-0.239c-0.802-0.938-1.586-1.888-2.352-2.85    c-0.087-0.109-0.178-0.219-0.265-0.329c-0.788-0.998-1.551-2.011-2.299-3.033c-0.133-0.183-0.267-0.366-0.4-0.549    c-0.738-1.024-1.458-2.059-2.157-3.105c-0.088-0.133-0.173-0.266-0.261-0.397c-0.698-1.059-1.378-2.126-2.034-3.207    c-0.033-0.053-0.066-0.105-0.099-0.158c-0.668-1.103-1.309-2.22-1.933-3.345c-0.096-0.173-0.193-0.347-0.289-0.521    c-0.607-1.108-1.193-2.228-1.757-3.356c-0.073-0.146-0.144-0.292-0.215-0.438c-1.16-2.352-2.229-4.744-3.203-7.176    c-0.06-0.151-0.122-0.301-0.18-0.45c-0.471-1.192-0.919-2.394-1.344-3.603c-0.05-0.143-0.099-0.286-0.148-0.429    c-0.873-2.518-1.648-5.071-2.321-7.656c-0.026-0.101-0.053-0.2-0.08-0.301c-0.329-1.279-0.632-2.567-0.913-3.861    c-0.025-0.119-0.05-0.238-0.076-0.358c-0.572-2.695-1.039-5.421-1.395-8.172c-0.002-0.017-0.004-0.035-0.007-0.053    c-0.176-1.374-0.324-2.755-0.446-4.142c-0.006-0.073-0.012-0.146-0.018-0.219c-0.12-1.392-0.214-2.788-0.278-4.189h-73.354    L119.908,394.327z"/><polygon points="140.638,332.19 45.156,332.19 45.156,394.327 109.421,394.327   "/><rect height="62.135" width="421.688" x="45.156" y="46.169"/><path d="M378.274,237.555c6.124,3.42,11.921,7.482,17.31,12.152c0.023,0.02,0.046,0.041,0.068,0.06    c0.588,0.51,1.17,1.024,1.746,1.547h69.445v-62.131h-64.268L378.274,237.555z"/><polygon points="466.844,179.812 466.844,124.264 411.036,179.812   "/><path d="M327.789,269.622c-15.529,0-30.127,6.019-41.104,16.946c-10.978,10.923-17.021,25.443-17.021,40.886    c0,15.443,6.044,29.964,17.021,40.886c10.979,10.929,25.576,16.947,41.105,16.947c15.532,0,30.133-6.019,41.115-16.947    c10.972-10.922,17.014-25.442,17.014-40.886c0-15.442-6.042-29.963-17.014-40.885    C357.922,275.641,343.321,269.622,327.789,269.622z"/><path d="M396.314,391.549c1.865-1.977,3.66-4.046,5.354-6.178c0.012-0.014,0.027-0.023,0.037-0.038    c13.051-16.435,20.135-36.615,20.135-57.88c-0.002-24.992-9.781-48.488-27.539-66.162c-0.652-0.649-1.315-1.284-1.983-1.912    c-17.502-16.445-40.416-25.502-64.525-25.502c-24.05,0-46.911,9.016-64.401,25.384c-0.109,0.104-0.223,0.203-0.332,0.308    l-0.053,0.049c-0.57,0.547-1.148,1.1-1.714,1.661c-0.003,0.005-0.008,0.009-0.012,0.013c-12.156,12.1-20.568,26.926-24.668,43.09    c-0.03,0.186-0.083,0.365-0.136,0.547c-1.804,7.298-2.733,14.865-2.729,22.574c0,0,0,0,0,0.001    c0.007,23.412,8.602,45.514,24.298,62.739c0.095,0.103,0.191,0.203,0.286,0.307c0.958,1.041,1.938,2.067,2.948,3.072    c0.599,0.596,1.203,1.176,1.813,1.753c0.151,0.122,0.291,0.256,0.426,0.396c17.486,16.316,40.187,25.271,64.273,25.271    c21.35,0,41.612-7.036,58.119-19.999c0.034-0.027,0.064-0.059,0.098-0.085c1.436-1.129,2.835-2.298,4.191-3.494    c0.047-0.041,0.094-0.082,0.142-0.124c0.573-0.508,1.136-1.024,1.692-1.542c0.066-0.063,0.136-0.125,0.203-0.188    c0.002-0.002,0.004-0.004,0.007-0.006c0.013-0.012,0.025-0.023,0.038-0.036c0.005-0.004,0.009-0.009,0.014-0.014l0.129-0.118    c0.63-0.593,1.248-1.189,1.854-1.791c0.007-0.009,0.016-0.016,0.022-0.023c0.637-0.633,1.264-1.279,1.886-1.935    C396.229,391.64,396.271,391.595,396.314,391.549z M375.515,374.982c-12.751,12.688-29.7,19.676-47.726,19.676    s-34.972-6.988-47.717-19.677c-12.756-12.693-19.78-29.572-19.78-47.527c0-17.954,7.024-34.833,19.781-47.527    c12.744-12.688,29.69-19.676,47.716-19.676s34.975,6.987,47.726,19.676c12.753,12.694,19.774,29.573,19.774,47.527    S388.268,362.288,375.515,374.982z"/><path d="M411.753,417.123l7.954-7.921l-14.054-13.989c-0.714,0.811-1.442,1.611-2.183,2.403c-0.088,0.094-0.176,0.188-0.264,0.281    c-0.042,0.044-0.083,0.089-0.124,0.133c-0.009,0.01-0.015,0.02-0.022,0.028l-0.128,0.133c-0.093,0.098-0.185,0.197-0.278,0.295    c-0.006,0.006-0.009,0.011-0.014,0.017c-0.545,0.563-1.09,1.123-1.652,1.682c-0.025,0.026-0.051,0.053-0.077,0.079    c-0.001,0.001-0.001,0.002-0.003,0.002c-0.002,0.002-0.004,0.004-0.006,0.006c-0.547,0.545-1.107,1.085-1.666,1.621    c-0.002,0.002-0.004,0.003-0.006,0.004c-0.003,0.004-0.006,0.007-0.008,0.01c-0.004,0.002-0.006,0.004-0.008,0.006    c-0.001,0.002-0.002,0.003-0.004,0.004c-0.003,0.003-0.006,0.007-0.01,0.01c-0.001,0.001-0.003,0.002-0.004,0.003    c-0.008,0.009-0.018,0.018-0.025,0.025h-0.001c-0.009,0.01-0.019,0.018-0.028,0.027v0.001c-0.07,0.065-0.141,0.131-0.21,0.197    c-0.001,0-0.001,0.001-0.001,0.002c-0.01,0.008-0.018,0.016-0.027,0.023c0,0.001,0,0.002-0.001,0.002l-0.203,0.194    c-0.007,0.006-0.015,0.01-0.021,0.017c-0.008,0.007-0.014,0.015-0.021,0.021c-0.442,0.413-0.886,0.82-1.335,1.228    c-0.141,0.129-0.285,0.255-0.428,0.383c-0.004,0.005-0.008,0.01-0.012,0.014c-0.184,0.164-0.369,0.323-0.553,0.484    c-0.154,0.137-0.309,0.272-0.463,0.407l14.057,13.987L411.753,417.123z"/></g></g><g id="Layer_1"/></svg>