<?xml version="1.0" ?><!DOCTYPE svg  PUBLIC '-//W3C//DTD SVG 1.1//EN'  'http://www.w3.org/Graphics/SVG/1.1/DTD/svg11.dtd'><svg height="512px" style="enable-background:new 0 0 512 512;" version="1.1" viewBox="0 0 512 512" width="512px" xml:space="preserve" xmlns="http://www.w3.org/2000/svg" xmlns:xlink="http://www.w3.org/1999/xlink"><g id="_x32_72_x2C__webinar_x2C__forum_x2C__online_x2C__seminar_x2C__website_x2C_"><g><path d="M173.783,256.811v5.053c0.53-0.08,1.088,0,1.594,0.186l31.771,12.469    c1.277,0.506,2.074,1.729,2.074,3.031v23.397c0,1.78-1.46,3.271-3.271,3.271h-92.416c-1.807,0-3.271-1.49-3.271-3.271v-23.397    c0-1.463,0.982-2.686,2.313-3.111l31.533-12.389c0.586-0.24,1.168-0.293,1.754-0.186v-5.479c-1.569-1.01-3.032-2.18-4.334-3.51    c-4.787-4.758-7.735-11.352-7.735-18.637c0-7.258,2.948-13.879,7.735-18.638c3.19-3.191,7.233-5.584,11.725-6.808l0,0l0.639-0.159    l0.105-0.026l0.744-0.159l0.108-0.026l0.133-0.026l0.186-0.054h0.077l0.239-0.054l0,0l0.267-0.052h0.052l0.186-0.027l0.162-0.027    l0.105-0.025l0.214-0.027h0.024l0.267-0.026h0.028l0.239-0.053h0.105l0.133-0.027l0.534-0.053h0.263l0.053-0.026h0.189h0.158    l0.105-0.027h0.239h0.028l0.267-0.025h0.024h0.242h0.105h0.158h0.186h0.081h0.267h0.081h0.077h0.109h0.052h0.025h0.108h0.078    h0.081h0.053h0.053h0.081h0.081h0.105h0.028h0.053l0.105,0.025h0.081h0.081h0.025h0.081h0.081l0.158,0.027h0.028h0.186h0.077    c6.489,0.505,12.339,3.322,16.67,7.657c4.762,4.759,7.71,11.353,7.71,18.638s-2.948,13.879-7.71,18.637    C177.292,254.392,175.615,255.721,173.783,256.811 M247.774,379.007c3.562,0,6.808,1.463,9.121,3.775    c2.34,2.341,3.8,5.557,3.8,9.146c0,3.563-1.46,6.781-3.8,9.12c-2.313,2.313-5.559,3.776-9.121,3.776    c-3.534,0-6.781-1.463-9.118-3.803c-2.341-2.313-3.776-5.53-3.776-9.094c0-3.589,1.436-6.805,3.776-9.146l0.21-0.186    C241.179,380.363,244.345,379.007,247.774,379.007z M247.774,371.828H79.953H60.226H31.69v20.1c0,5.531,2.26,10.557,5.889,14.172    c3.643,3.643,8.668,5.903,14.2,5.903h392c5.527,0,10.528-2.261,14.172-5.903c3.639-3.615,5.899-8.641,5.899-14.172v-20.1h-28.529    h-19.727H247.774z M252.27,387.408c-1.144-1.143-2.741-1.86-4.496-1.86c-1.702,0-3.215,0.664-4.359,1.701l-0.133,0.159    c-1.144,1.145-1.86,2.766-1.86,4.52c0,1.756,0.716,3.352,1.86,4.494c1.144,1.144,2.737,1.861,4.492,1.861    c1.754,0,3.352-0.718,4.496-1.861c1.168-1.143,1.888-2.738,1.888-4.494C254.158,390.174,253.438,388.553,252.27,387.408z     M143.075,224.72l0.877,0.212c1.327,0.293,2.762,0.452,4.253,0.452c4.226,0,8.135-1.329,11.325-3.562    c1.036-0.745,2.021-1.596,2.899-2.553l0.319-0.319l0.024-0.026l0,0l0.028-0.054l0.053-0.054l0,0l0.028-0.025l0.025-0.027    l0.105-0.105l0.028-0.054l0,0l0.081-0.08l0.024-0.026v-0.025l0.053-0.027l0.056-0.106l0.053-0.026v-0.027l0.024-0.026    c0.614-0.718,1.144-1.515,1.649-2.34l0.105-0.187l0.214-0.371c-1.144-0.293-2.341-0.506-3.562-0.611l0,0l-0.186-0.027l0,0h-0.081    l0,0h-0.053h-0.028h-0.053h-0.025h-0.056h-0.024h-0.028h-0.053l-0.024-0.027h-0.057l0,0h-0.129h-0.028h-0.053h-0.028h-0.053    h-0.028h-0.024h-0.081l0,0h-0.081l0,0h-0.053h-0.025h-0.052h-0.028h-0.028h-0.053h-0.025h-0.052h-0.028h-0.053h-0.214h-0.053    h-0.133h-0.105h-0.105h-0.162h-0.024h-0.186l-0.028,0.027h-0.186h-0.081h-0.105l-0.133,0.027h-0.052h-0.186h-0.028l-0.186,0.025    h-0.053l-0.133,0.027h-0.105l-0.081,0.026l-0.158,0.026h-0.028l-0.214,0.027l0,0l-0.186,0.026h-0.053l-0.133,0.026h-0.105    l-0.081,0.025l-0.158,0.027h-0.028l-0.186,0.027l-0.053,0.025l-0.133,0.027l-0.105,0.027l-0.214,0.025l-0.053,0.027l-0.372,0.08    h-0.053l-0.664,0.186h-0.056c-0.53,0.159-1.035,0.318-1.541,0.532h-0.053c-2.604,1.01-4.92,2.526-6.861,4.466    C145.068,221.688,143.977,223.125,143.075,224.72z M165.143,226.022c-0.562,0.479-1.144,0.903-1.73,1.329    c-4.306,3.059-9.546,4.839-15.207,4.839c-1.916,0-3.829-0.212-5.717-0.638c-0.558-0.105-1.091-0.266-1.649-0.426    c-0.158,1.012-0.239,2.047-0.239,3.111c0,5.396,2.208,10.289,5.742,13.825c3.538,3.536,8.43,5.743,13.827,5.743    c5.398,0,10.29-2.207,13.824-5.743c3.538-3.536,5.717-8.429,5.717-13.825c0-0.852-0.053-1.676-0.158-2.473    c-2.899-0.239-5.665-0.931-8.244-2.021C169.077,228.787,167.002,227.538,165.143,226.022z M171.175,218.764    c-0.344,0.611-0.716,1.197-1.116,1.781l-0.028,0.054l-0.024,0.026l-0.028,0.054v0.026l-0.024,0.026l-0.028,0.026l-0.158,0.267    c1.274,0.983,2.685,1.835,4.226,2.472c1.011,0.426,2.049,0.771,3.137,1.011c-0.849-1.489-1.913-2.871-3.137-4.095    c-0.797-0.771-1.622-1.488-2.552-2.127l-0.052,0.133l-0.028,0.055l-0.053,0.025v0.026v0.026l-0.024,0.054l-0.028,0.026    l-0.028,0.054l-0.024,0.054L171.175,218.764L171.175,218.764z M167.241,266.914v-7.285c-2.26,0.639-4.625,0.984-7.072,0.984    c-2.713,0-5.317-0.426-7.791-1.17v7.923l6.914,6.646L167.241,266.914z M156.899,280.739l-0.186-0.159l-0.028-0.027l-0.024-0.025    l-0.028-0.027l-0.052-0.053l-0.028-0.026l-0.053-0.054l-0.024-0.026l-0.028-0.026l-9.36-8.986l-0.024-0.054l-0.028-0.026    l-2.471-2.366l-27.757,10.9v17.894h85.877v-17.894l-27.837-10.927l-1.969,1.754l-0.053,0.027v0.025l-0.291,0.24l-0.028,0.026    l-0.028,0.026l-11.006,9.838c-1.25,1.223-3.243,1.223-4.521,0.026l-0.024-0.026L156.899,280.739z M411.155,112.706    c-2.713,0.745-5.317,2.394-7.738,4.786c-3.323,3.297-6.272,7.977-8.665,13.64c0.396,0.346,0.768,0.744,1.141,1.144v0.025    l0.08,0.08l0.028,0.053l0.024,0.027l0.028,0.026l0.024,0.054c0.877,1.063,1.516,2.339,1.836,3.748l0.133,0.027l0.162,0.026    l1.088,0.106l0.214,0.027l0.21,0.025l0,0l0.825,0.08l0.187,0.026h0.027l0.211,0.026l0.614,0.054l0.157,0.026h0.053l0.215,0.027    l0.186,0.025h0.053h0.161l0.425,0.055h0.211l0.186,0.025h0.028l0.186,0.027h0.215l0.104,0.025h0.105l0.214,0.027h0.187h0.024    l0.214,0.026h0.187l0.08,0.026h0.134h0.211l0.161,0.027h0.053h0.214l0.186,0.026h0.053h0.158l0.214,0.026l0.425,0.027h0.187h0.027    l1.513,0.105h0.134h0.372h0.053l0.189,0.027h0.21h0.053h0.162l0.21,0.025h0.134h0.08h0.215h0.186h0.024l0.187,0.027h0.214h0.105    h0.105h0.214V112.706z M425.989,118.104c-2.579-2.738-5.369-4.6-8.32-5.397V137.3l0.238-0.026h0.053l0.853-0.027h0.105h0.187    h0.267h0.053l0.505-0.025h0.028h0.263l0.215-0.027h0.372l0.133-0.025h0.134l1.144-0.055l0.239-0.025h0.024l0.295-0.027h0.186    h0.105l1.411-0.106l0,0l0.501-0.026h0.057l0.291-0.027l0.158-0.025h0.133l0.878-0.08l0.238-0.027l0.267-0.025h0.028l0.267-0.027    h0.211l0.081-0.026l0.291-0.026h0.133l0.983-0.106h0.027l0.268-0.026l1.701-0.213h0.053l0.211-0.027l0.8-0.105h0.053l0.292-0.053    h0.161l0.13-0.027l0.562-0.08l0.263-0.026h0.053l0.242-0.053l0.264-0.027h0.028l0.267-0.052l0.21-0.027l0.081-0.027l0.291-0.025    l0.134-0.027l0.133-0.027l0.295-0.025l0.077-0.026l0.215-0.027C433.275,128.287,429.928,122.225,425.989,118.104z     M455.448,131.078c-0.901-1.01-1.808-2.021-2.762-2.978c-5.717-5.716-12.712-10.156-20.527-12.868    c4.015,4.759,7.392,11.167,9.918,18.664l0.187,0.586C446.65,133.578,451.037,132.434,455.448,131.078z M468.423,163.09    c-0.582-9.731-3.748-18.797-8.798-26.481c-5.184,1.675-10.371,3.058-15.582,4.147c0.853,3.377,1.544,6.939,2.021,10.609    l0.027,0.133c0.478,3.775,0.797,7.656,0.902,11.592H468.423z M448.058,198.397c-0.478,0.745-1.088,1.437-1.755,1.995    c-1.517,1.303-3.481,2.1-5.584,2.18c-2.337,5.902-5.236,10.98-8.56,14.942c7.815-2.712,14.811-7.152,20.527-12.868    c1.249-1.25,2.446-2.58,3.563-3.936c-1.197-0.371-2.394-0.744-3.591-1.09C451.118,199.196,449.573,198.771,448.058,198.397z     M445.4,185.637c0.744,0.505,1.407,1.09,1.966,1.754c1.091,1.303,1.835,2.898,2.103,4.627c1.674,0.424,3.348,0.877,4.973,1.329    c1.912,0.558,3.854,1.144,5.822,1.781c4.706-7.472,7.602-16.165,8.159-25.497h-21.429c-0.053,2.631-0.238,5.237-0.478,7.844    C446.25,180.266,445.854,183.004,445.4,185.637z M388.529,129.138c2.26-5.478,4.998-10.183,8.135-13.905    c-7.815,2.712-14.811,7.152-20.523,12.868c-0.958,0.957-1.863,1.94-2.766,2.978c0.982,0.293,1.966,0.586,2.951,0.852    c1.646,0.479,3.324,0.903,4.945,1.303C382.84,130.866,385.497,129.27,388.529,129.138z M381.83,163.09    c0.08-2.871,0.266-5.717,0.558-8.508c0.291-3.031,0.716-5.956,1.277-8.774c-2.05-1.409-3.457-3.642-3.829-6.222    c-1.783-0.426-3.537-0.903-5.292-1.383c-1.755-0.504-3.538-1.035-5.345-1.595c-5.051,7.685-8.216,16.75-8.799,26.481H381.83z     M379.355,192.044c0.295-1.995,1.25-3.803,2.607-5.185c0.449-0.426,0.93-0.824,1.46-1.197c-0.449-2.632-0.821-5.344-1.116-8.162    c-0.238-2.605-0.424-5.238-0.477-7.869H360.4c0.559,9.332,3.481,18.025,8.16,25.497c1.969-0.612,3.909-1.224,5.825-1.755    C376.032,192.921,377.682,192.469,379.355,192.044z M388.129,202.626c-2.393-0.107-4.572-1.117-6.142-2.712    c-0.452-0.452-0.877-0.957-1.222-1.489c-1.543,0.372-3.084,0.798-4.625,1.224c-1.197,0.346-2.394,0.691-3.565,1.063    c1.063,1.303,2.208,2.579,3.404,3.775l0.161,0.16c5.713,5.716,12.708,10.156,20.523,12.868    C393.341,213.553,390.441,208.502,388.129,202.626z M411.155,143.813l-1.569-0.053l0,0l-0.529-0.026h-0.134l-0.4-0.027h-0.052    h-0.453l-0.028-0.025h-0.425h-0.104l-0.105-0.027h-0.242l-0.187-0.027h-0.024h-0.238l-0.214-0.025h-0.053h-0.162l-0.238-0.027    h-0.134h-0.077l-0.238-0.026h-0.214l0,0l-0.453-0.026h-0.053l-0.157-0.026h-0.242l-0.134-0.027h-0.077l-0.238-0.026h-0.215l0,0    l-0.214-0.026l-0.238-0.026h-0.081h-0.13l-0.242-0.027l-0.158-0.025h-0.052h-0.215l-0.238-0.027h-0.028l-0.186-0.027l-0.239-0.025    h-0.104h-0.105l-0.242-0.027l-0.187-0.026h-0.024l-0.214-0.026l-0.238-0.026h-0.053h-0.162l-0.21-0.027l-0.161-0.026h-0.078    l-0.214-0.026l-0.214-0.026h-0.024l-0.214-0.027l-0.239-0.025h-0.053l-0.161-0.027l-0.211-0.027h-0.161h-0.077l-0.214-0.025    l-0.239-0.027l0,0l-0.214-0.026l-0.21-0.026l-0.109-0.026h-0.133l-0.211-0.026l-0.081-0.027c-1.407,2.553-3.986,4.334-6.991,4.68    c-0.48,2.553-0.852,5.158-1.144,7.816c-0.239,2.526-0.425,5.131-0.505,7.844h22.812V143.813z M440.48,163.09    c-0.105-3.723-0.396-7.312-0.85-10.769l-0.027-0.079c-0.478-3.589-1.145-7.046-1.941-10.289h-0.024l-0.295,0.053l-0.238,0.026    l-0.081,0.026l-0.319,0.054h-0.105l-0.186,0.026l-0.319,0.054h-0.024l-0.534,0.079l-0.08,0.027l-0.292,0.053h-0.157l-0.162,0.026    l-0.639,0.106l-0.263,0.027h-0.028l-1.568,0.212l0,0l-0.319,0.026l-0.215,0.027l-0.077,0.026l-0.319,0.026l-0.133,0.026    l-0.506,0.054h-0.027l-0.264,0.025l-0.242,0.027l-1.007,0.106l-0.057,0.026c-1.541,0.16-3.081,0.293-4.625,0.399h-0.158    c-1.755,0.132-3.51,0.212-5.292,0.266l-0.187,0.026h-0.61h-0.267l-0.053,0.026h-0.319v19.276H440.48z M411.155,169.631h-22.812    c0.08,2.525,0.238,4.945,0.452,7.258c0.239,2.525,0.583,4.998,1.011,7.391h0.024h0.053h0.028l0.053,0.027h0.027l0.078,0.027h0.027    h0.081h0.024l0.081,0.025h0.028l0.076,0.027l0,0l0.109,0.026l0,0h0.105l0,0l0.105,0.026l0,0l0.08,0.026h0.025l0.08,0.027h0.028    l0.081,0.026l0,0l0.105,0.026l0,0l0.104,0.026l0,0l0.081,0.053l0,0l0.105,0.027l0,0l0.105,0.027l0,0l0.08,0.025l0,0l0.105,0.054    l0,0l0.109,0.026l0,0l0.08,0.054l0,0l0.105,0.026l0,0l0.08,0.026l0,0l0.105,0.054l0,0l0.081,0.025h0.024l0.081,0.055l0,0    l0.081,0.052h0.023l0.081,0.027l0.081,0.053l0,0l0.105,0.054l0,0l0.08,0.053l0,0l0.078,0.027h0.027l0.081,0.053l0,0l0.077,0.053    l0,0l0.08,0.054l0.105,0.053l0,0l0.081,0.054l0.081,0.053l0.08,0.053l0.105,0.055l0,0l0.081,0.052l0,0l0.077,0.054l0,0l0.08,0.053    v0.027l0.081,0.053l0.081,0.053l0,0l0.077,0.055l0.081,0.079l0,0l0.08,0.053l0.077,0.054l0.081,0.08l0,0l0.053,0.053h0.027    l0.053,0.053h0.028l0.053,0.08l0,0l0.081,0.053v0.027l0.077,0.053l0.053,0.08h0.028l0.053,0.053l0,0l0.08,0.08l0,0l0.08,0.053    l0.053,0.08l0,0l0.078,0.08l0,0l0.056,0.079l0,0l0.077,0.054l0,0l0.057,0.08l0,0l0.077,0.078l0,0l0.052,0.08l0,0l0.082,0.08l0,0    l0.052,0.08l0,0l0.053,0.053l0,0l0.081,0.08l0,0l0.053,0.08l0,0l0.053,0.08l0,0l0.056,0.079l0,0l0.053,0.079h0.024l0.053,0.08l0,0    l0.057,0.106l0,0l0.053,0.079l0,0l0.053,0.08l0,0l0.053,0.08l0,0l0.052,0.08l0,0l0.053,0.08l0,0l0.056,0.105l0,0l0.053,0.08l0,0    l0.025,0.08h0.027l0.025,0.08v0.025l0.056,0.08l0,0l0.053,0.08l0,0l0.024,0.08l0.028,0.026l0.024,0.079l0,0l0.057,0.08l0,0    l0.023,0.106h0.029l0.023,0.08l0,0l0.053,0.106l0,0l0.028,0.08l0,0l0.053,0.079l0,0l0.028,0.106l0,0l0.024,0.08v0.027l0.056,0.079    l0,0l0.025,0.106l0,0l0.027,0.08l0,0l0.053,0.105l0,0l0.025,0.08l0,0l0.027,0.106l0,0l0.028,0.106l0,0l0.024,0.08l0,0l0.028,0.105    l0,0l0.024,0.107l0,0l0.028,0.08v0.025l0.024,0.08l0,0l0.028,0.106l0,0l0.028,0.106l0,0l0.023,0.08l0,0v0.105l0,0l0.029,0.107l0,0    l0.023,0.105l0,0v0.08v0.026l0.029,0.026c4.491-0.559,9.012-0.904,13.532-1.01V169.631z M431.229,191.964    c0.291-1.994,1.222-3.775,2.579-5.132l0.077-0.053v-0.027l0.057-0.053l0.024-0.025l0.053-0.027l0.028-0.053l0.024-0.027    l0.056-0.026l0.024-0.026l0.053-0.054l0,0l0.081-0.053l0.028-0.026l0.024-0.053l0.053-0.027l0.028-0.027l0.053-0.025l0.027-0.027    l0.053-0.053l0,0l0.081-0.054v-0.026l0.077-0.025l0.028-0.027l0.052-0.053l0.028-0.027l0.024-0.027l0.053-0.025l0.028-0.027    l0.081-0.053l0,0l0.077-0.054l0,0l0.053-0.052h0.027l0.053-0.055l0.053-0.025h0.028l0.053-0.055h0.028l0.077-0.052l0.08-0.054    h0.028l0.053-0.054l0.024-0.026l0.057-0.025l0.053-0.027h0.024l0.053-0.053h0.027l0.081-0.055l0.077-0.025l0.028-0.026    l0.053-0.027l0.028-0.026l0.052-0.026h0.053l0.028-0.027l0.077-0.026v-0.025l0.109-0.027l0,0l0.077-0.053h0.027l0.053-0.027    l0.134-0.053l0.028-0.026l0.077-0.027h0.027l0.081-0.026v-0.026l0.077-0.027h0.028l0.053-0.026l0.053-0.025h0.053l0.056-0.027    h0.024l0.081-0.027l0,0l0.105-0.053l0,0l0.08-0.026h0.025l0.056-0.026h0.053l0.053-0.026h0.053l0.028-0.027l0.186-0.053h0.024    h0.053l0.056-0.026h0.053l0.053-0.027h0.025l0.371-0.08h0.057l0.053-0.025h0.053h0.053l0.08-0.027l0,0h0.105    c0.4-2.393,0.744-4.839,0.982-7.364c0.215-2.313,0.372-4.732,0.453-7.231h-22.812v21.35    C422.188,191.086,426.709,191.406,431.229,191.964z M417.669,220.04c2.817-0.771,5.53-2.525,8.001-5.079    c3.433-3.481,6.437-8.453,8.854-14.463l-0.052-0.026l0,0l-0.053-0.054h-0.028l-0.053-0.053l-0.024-0.025l-0.028-0.027    l-0.053-0.053l0,0l-0.053-0.027l-0.028-0.053h-0.024l-0.056-0.054l0,0l-0.053-0.053l-0.024-0.026l-0.028-0.027l-0.053-0.053l0,0    l-0.053-0.053l-0.028-0.027l-0.024-0.026l-0.053-0.053l0,0l-0.056-0.054l-0.024-0.026l-0.028-0.026l-0.053-0.053l0,0l-0.028-0.055    l-0.053-0.025v-0.027l-0.053-0.053h-0.024l-0.027-0.054l-0.028-0.026l-0.024-0.025l-0.053-0.055v-0.025l-0.028-0.027l-0.053-0.053    l0,0l-0.053-0.054v-0.026l-0.053-0.054l-0.027-0.026v-0.025l-0.105-0.107l-0.028-0.053l0,0l-0.053-0.08h-0.028l-0.024-0.054    l-0.028-0.052l-0.024-0.027l-0.053-0.053v-0.027l-0.056-0.079l0,0l-0.053-0.054v-0.026l-0.024-0.054l-0.053-0.053v-0.027    l-0.057-0.053v-0.026l-0.052-0.08l0,0l-0.053-0.08l0,0L432.373,198l-0.027-0.055l-0.028-0.025l-0.077-0.16l0,0l0,0l-0.053-0.08    v-0.025l-0.028-0.055l-0.028-0.053l-0.024-0.026l-0.027-0.08l0,0l-0.053-0.079l0,0l-0.028-0.08l-0.024-0.027l-0.028-0.053    l-0.024-0.053v-0.026l-0.028-0.08h-0.024l-0.028-0.106l0,0l-0.028-0.08l-0.024-0.025l-0.027-0.054v-0.054l-0.025-0.026    l-0.027-0.079l0,0l-0.025-0.08v-0.027l-0.027-0.079l-0.028-0.026l-0.024-0.054v-0.054l-0.028-0.025l-0.024-0.08l0,0l-0.028-0.08    v-0.026l-0.024-0.08v-0.026l-0.028-0.053v-0.053l-0.028-0.027v-0.08l-0.024-0.026v-0.08l0,0l-0.027-0.079l-0.025-0.027v-0.079    v-0.026l-0.027-0.054l-0.024-0.08l0,0v-0.106l0,0l-0.028-0.079v-0.026l-0.028-0.054v-0.053v-0.054l-0.024-0.08l0,0v-0.105    l-0.028-0.08v-0.026v-0.079l-0.024-0.027v-0.053v-0.08v-0.026l-0.028-0.08l0,0v-0.106v-0.027v-0.053v-0.053l-0.027-0.054v-0.053    v-0.026v-0.107l0,0v-0.079v-0.026v-0.08v-0.053v-0.027l-0.025-0.08v-0.025v-0.08c0-0.346,0.025-0.665,0.053-0.983l0.081-0.426    c-4.521-0.558-9.041-0.878-13.561-0.983V220.04z M394.514,200.393l-0.057,0.053h-0.025l0,0l-0.052,0.026l-0.057,0.08    c2.394,5.981,5.397,10.928,8.83,14.437c2.499,2.526,5.184,4.281,8.002,5.052v-29.06c-4.521,0.105-9.041,0.451-13.532,1.01v0.054    l0,0v0.106h0.023v0.105l0,0v0.107h0.028v0.053v0.053l0,0v0.106l0,0v0.08h0.028v0.106l0,0v0.105l0,0v0.107h0.024v0.105v0.107v0.105    v0.106l-0.024,0.611l0,0v0.054l0,0l-0.028,0.026v0.026v0.027l0,0v0.159v0.026v0.026l-0.028,0.027l0,0v0.053l0,0v0.054l0,0    l-0.023,0.105l0,0v0.054l0,0v0.026v0.026v0.027l0,0l-0.029,0.053l0,0v0.054v0.053l-0.023,0.079v0.027v0.053l-0.029,0.054v0.026    v0.079l0,0l-0.023,0.08v0.026l-0.028,0.054v0.026v0.054l-0.028,0.053v0.027l-0.024,0.08l0,0v0.078l-0.028,0.027v0.053    l-0.024,0.053v0.027l-0.028,0.053v0.027l-0.024,0.079l0,0l-0.028,0.08v0.026v0.053l-0.027,0.027v0.053l-0.025,0.053l0,0    l-0.027,0.08v0.027l-0.025,0.053l-0.027,0.027v0.053l-0.025,0.053v0.027l-0.027,0.079l0,0l-0.028,0.054l-0.024,0.026l-0.028,0.054    v0.053l-0.024,0.025l-0.028,0.055v0.025l-0.028,0.054v0.026l-0.023,0.054l-0.029,0.026l-0.023,0.053v0.053l-0.029,0.027    l-0.023,0.053l-0.028,0.08l-0.028,0.026l-0.024,0.054v0.026l-0.028,0.026l-0.024,0.08l0,0l-0.053,0.08l0,0l-0.028,0.053    l-0.027,0.026l-0.025,0.054l-0.053,0.133h-0.027l-0.025,0.079l0,0l-0.056,0.054v0.054l-0.024,0.026l-0.028,0.053h-0.024    l-0.027,0.08l0,0l-0.053,0.053v0.026l-0.029,0.054l-0.023,0.026l-0.028,0.027l-0.081,0.132l-0.024,0.027l-0.028,0.053    l-0.024,0.026l-0.053,0.08l-0.028,0.027l-0.027,0.052l0,0l-0.053,0.055v0.025l-0.238,0.293l-0.025,0.027l-0.057,0.08h-0.023    l-0.053,0.079l0,0l-0.028,0.026l-0.158,0.186l0,0l-0.081,0.054v0.026l-0.027,0.026l-0.025,0.027l-0.027,0.026h-0.025l-0.027,0.053    l0,0l-0.028,0.027l-0.104,0.105h-0.025l-0.027,0.027l-0.053,0.079l-0.053,0.026v0.027l-0.053,0.053h-0.028l-0.028,0.027    l-0.024,0.025l-0.028,0.027h-0.024l-0.028,0.053l0,0L394.514,200.393z M418.785,244.395v120.893h13.188V242.533    C427.691,243.49,423.28,244.129,418.785,244.395z M337.933,150.328H63.578v214.959h13.213V167.955c0-1.809,1.463-3.27,3.271-3.27    h256.25C336.393,159.793,336.95,154.98,337.933,150.328z M414.426,105.715h0.081h0.077c16.67,0.053,31.8,6.832,42.729,17.76    c10.925,10.928,17.705,26.029,17.758,42.727v0.079v0.08v0.079v0.107c-0.053,16.67-6.833,31.744-17.758,42.699    c-10.929,10.928-25.978,17.707-42.62,17.787h-0.108h-0.077h-0.081h-0.028h-0.077h-0.08h-0.105    c-16.646-0.08-31.694-6.859-42.623-17.787l-0.158-0.187c-10.819-10.9-17.522-25.896-17.6-42.434v-0.079v-0.187v-0.159v-0.08    c0.077-16.67,6.857-31.746,17.758-42.646c10.929-10.9,25.978-17.682,42.623-17.76h0.105H414.426z M345.271,147.723l-0.028,0.08    v0.079l-0.077,0.187c-1.545,5.85-2.341,11.965-2.341,18.292v1.329v0.026v0.027v0.053v0.159v0.08    c0.214,9.173,2.155,17.893,5.478,25.869c3.644,8.773,9.014,16.67,15.632,23.265c0.958,0.878,1.33,2.286,0.825,3.589    l-10.609,27.066l38.633-12.576c0.586-0.186,1.249-0.212,1.888-0.025c3.165,0.902,6.433,1.594,9.757,2.047    c3.218,0.451,6.569,0.691,9.998,0.691h1.011h0.077c6.489-0.107,12.789-1.064,18.744-2.793l0.081-0.025    c11.778-3.404,22.282-9.731,30.708-18.133c12.95-12.975,20.952-30.868,20.952-50.649c0-19.755-8.002-37.675-20.952-50.623    c-12.975-12.948-30.866-20.978-50.621-20.978c-19.783,0-37.674,8.029-50.648,20.978    C355.056,124.458,348.566,135.439,345.271,147.723z M147.462,77.797c1.063-3.243,2.976-6.089,5.527-8.215    c3.137-2.686,7.205-4.281,11.648-4.281c1.674,0,3.323,0.239,4.892,0.665l1.832,0.638c1.597-1.887,3.538-3.482,5.689-4.679    c2.952-1.649,6.355-2.579,9.946-2.579c5.665,0,10.82,2.313,14.516,6.009l0.186,0.186c3.271,3.378,5.398,7.844,5.77,12.815    c1.039-0.16,2.102-0.238,3.137-0.238c5.665,0,10.795,2.285,14.519,6.008c3.72,3.749,6.033,8.88,6.033,14.543    c0,0.691-0.053,1.437-0.13,2.181l-0.056,0.425c1.172,1.383,2.102,2.925,2.818,4.627c0.933,2.153,1.435,4.547,1.435,6.992    c0,4.972-2.046,9.492-5.289,12.736c-3.271,3.295-7.791,5.316-12.764,5.316H135.07c-4.97,0-9.49-2.021-12.761-5.291    c-3.243-3.27-5.264-7.79-5.264-12.762s2.021-9.492,5.264-12.762l0.21-0.186c2.474-2.42,5.665-4.121,9.227-4.787    c0.133-4.758,2.127-9.065,5.292-12.23C139.776,80.189,143.419,78.303,147.462,77.797z M313.767,266.701    c1.808,0,3.267,1.489,3.267,3.27c0,1.809-1.459,3.271-3.267,3.271H243.52c-1.807,0-3.271-1.463-3.271-3.271    c0-1.78,1.463-3.27,3.271-3.27H313.767z M384.009,282.388c1.808,0,3.271,1.463,3.271,3.271c0,1.809-1.463,3.271-3.271,3.271    h-92.311c-1.811,0-3.271-1.462-3.271-3.271c0-1.808,1.46-3.271,3.271-3.271H384.009z M384.009,298.049    c1.808,0,3.271,1.488,3.271,3.27c0,1.809-1.463,3.27-3.271,3.27H243.52c-1.807,0-3.271-1.461-3.271-3.27    c0-1.781,1.463-3.27,3.271-3.27H384.009z M364.865,313.734c1.782,0,3.246,1.463,3.246,3.271s-1.464,3.271-3.246,3.271H243.52    c-1.807,0-3.271-1.463-3.271-3.271s1.463-3.271,3.271-3.271H364.865z M384.009,329.422c1.808,0,3.271,1.462,3.271,3.27    c0,1.781-1.463,3.271-3.271,3.271h-92.311c-1.811,0-3.271-1.49-3.271-3.271c0-1.808,1.46-3.27,3.271-3.27H384.009z     M384.009,345.082c1.808,0,3.271,1.461,3.271,3.27s-1.463,3.27-3.271,3.27H243.52c-1.807,0-3.271-1.461-3.271-3.27    s1.463-3.27,3.271-3.27H384.009z M123.692,316.526c-1.808,0-3.271-1.462-3.271-3.271c0-1.781,1.463-3.27,3.271-3.27h68.407    c1.811,0,3.271,1.488,3.271,3.27c0,1.809-1.46,3.271-3.271,3.271H123.692z M123.692,328.305c-1.808,0-3.271-1.462-3.271-3.27    c0-1.809,1.463-3.271,3.271-3.271h68.407c1.811,0,3.271,1.462,3.271,3.271c0,1.808-1.46,3.27-3.271,3.27H123.692z M40.892,438.616    c-1.797,0-3.271-1.462-3.271-3.271c0-1.808,1.474-3.27,3.271-3.27h295.019c1.808,0,3.271,1.462,3.271,3.27    c0,1.809-1.463,3.271-3.271,3.271H40.892z M213.662,452.655c-1.808,0-3.268-1.463-3.268-3.271c0-1.781,1.46-3.243,3.268-3.243    h204.14c1.783,0,3.271,1.462,3.271,3.243c0,1.809-1.488,3.271-3.271,3.271H213.662z M438.701,452.655    c-1.811,0-3.271-1.463-3.271-3.271c0-1.781,1.46-3.243,3.271-3.243h25.521c1.782,0,3.271,1.462,3.271,3.243    c0,1.809-1.488,3.271-3.271,3.271H438.701z M29.272,452.229c-1.793,0-3.271-1.463-3.271-3.244c0-1.808,1.478-3.271,3.271-3.271    h96.732c1.808,0,3.271,1.463,3.271,3.271c0,1.781-1.463,3.244-3.271,3.244H29.272z M103.565,125.629    c1.807,0,3.271,1.461,3.271,3.27s-1.464,3.27-3.271,3.27H35.056V281.99c0,1.807-1.477,3.27-3.271,3.27    c-1.797,0-3.271-1.463-3.271-3.27V128.898c0-1.809,1.474-3.27,3.271-3.27H103.565z M336.416,171.226H83.333v194.062h328.914    V244.475c-2.927-0.08-5.85-0.346-8.721-0.744c-3.299-0.453-6.514-1.117-9.68-1.969l-44.24,14.411    c-1.702,0.558-3.537-0.399-4.096-2.101c-0.238-0.744-0.211-1.516,0.053-2.207c3.805-10.449,8.269-21.109,12.363-31.532    c-6.594-6.887-11.936-14.995-15.658-23.929C338.996,188.561,336.975,180.079,336.416,171.226z" style="fill-rule:evenodd;clip-rule:evenodd;"/></g></g><g id="Layer_1"/></svg>