<?xml version="1.0" ?><svg enable-background="new 0 0 52 52" id="Layer_1" version="1.1" viewBox="0 0 52 52" xml:space="preserve" xmlns="http://www.w3.org/2000/svg" xmlns:xlink="http://www.w3.org/1999/xlink"><g><path d="M43.2200317,2.8099976C43.1300049,2.3399658,42.7200317,2,42.2399902,2H9.7700195   C9.2900391,2,8.8800049,2.3399658,8.7900391,2.8099976L2.1900024,35.9799805h47.6300049L43.2200317,2.8099976z"/><path d="M2,38v11c0,0.5499878,0.4500122,1,1,1h46c0.5599976,0,1-0.4500122,1-1V38H2z M11.0042114,47.0010376h-4v-2h4V47.0010376z    M11.0042114,43.0010376h-4v-2h4V43.0010376z M19.5042114,47.0010376h-4v-2h4V47.0010376z M19.5042114,43.0010376h-4v-2h4   V43.0010376z M28.0042114,47.0010376h-4v-2h4V47.0010376z M28.0042114,43.0010376h-4v-2h4V43.0010376z M36.5042114,47.0010376h-4   v-2h4V47.0010376z M36.5042114,43.0010376h-4v-2h4V43.0010376z M45.0042114,47.0010376h-4v-2h4V47.0010376z M45.0042114,43.0010376   h-4v-2h4V43.0010376z"/></g></svg>