<?xml version="1.0" ?><svg id="Layer_1" style="enable-background:new 1 -1 100 100;" version="1.1" viewBox="1 -1 100 100" xml:space="preserve" xmlns="http://www.w3.org/2000/svg" xmlns:xlink="http://www.w3.org/1999/xlink"><title/><path d="M82.9,6H26.8c-5.9,0-10.7,4.8-10.7,10.7V81c0,6.1,4.9,11,11,11c0,0,0,0,0,0h47.8c6.1,0,11-4.9,11-11V9  C85.9,7.3,84.6,6,82.9,6z M31.8,86h-4.7c-2.8,0-5-2.2-5-5V26.3c1.5,0.7,3.1,1.1,4.7,1.1h5L31.8,86z M79.9,16.7v4.7H26.8  c-2.6,0-4.7-2.1-4.7-4.7c0-2.6,2.1-4.7,4.7-4.7h53.1V16.7z"/></svg>