<?xml version="1.0" ?><!DOCTYPE svg  PUBLIC '-//W3C//DTD SVG 1.1//EN'  'http://www.w3.org/Graphics/SVG/1.1/DTD/svg11.dtd'><svg height="512px" style="enable-background:new 0 0 512 512;" version="1.1" viewBox="0 0 512 512" width="512px" xml:space="preserve" xmlns="http://www.w3.org/2000/svg" xmlns:xlink="http://www.w3.org/1999/xlink"><g id="C_-_20_x2C__chart_x2C__graph_x2C__analytics_x2C__presentation_x2C__sales"><g><polygon points="422.331,166.618 422.331,465.83 466.846,465.83 466.846,135.553 422.331,135.553   "/><polygon points="152.918,309.631 152.918,465.83 197.433,465.83 197.433,287.498 152.918,287.498   "/><polygon points="314.566,220.249 314.566,465.83 359.077,465.83 359.077,198.115 314.566,198.115   "/><polygon points="368.447,193.43 368.447,465.83 412.96,465.83 412.96,171.304 368.447,171.304   "/><polygon points="99.036,345.384 99.036,465.83 143.548,465.83 143.548,314.316 99.036,314.316   "/><rect height="115.761" width="44.51" x="45.154" y="350.069"/><polygon points="206.803,282.813 206.803,465.83 251.313,465.83 251.313,260.687 206.803,260.687   "/><path d="M45.154,46.17v294.528h44.51v-31.067c0-2.588,2.098-4.685,4.686-4.685h49.198v-22.134c0-2.588,2.098-4.686,4.685-4.686    h49.2v-22.126c0-2.588,2.098-4.686,4.686-4.686h49.195v-31.067c0-2.588,2.099-4.686,4.686-4.686h49.196V193.43    c0-2.588,2.098-4.686,4.686-4.686h49.196v-22.126c0-2.588,2.097-4.686,4.685-4.686h49.198v-31.065    c0-2.588,2.098-4.686,4.686-4.686h49.2V46.17H45.154z M130.272,72.552H247.02c2.588,0,4.686,2.097,4.686,4.685    c0,2.588-2.097,4.686-4.686,4.686H130.272c-2.587,0-4.686-2.097-4.686-4.686C125.587,74.649,127.686,72.552,130.272,72.552z     M130.272,102.174H247.02c2.588,0,4.686,2.098,4.686,4.686s-2.097,4.686-4.686,4.686H130.272c-2.587,0-4.686-2.098-4.686-4.686    S127.686,102.174,130.272,102.174z M130.272,131.797H247.02c2.588,0,4.686,2.097,4.686,4.686c0,2.588-2.097,4.685-4.686,4.685    H130.272c-2.587,0-4.686-2.097-4.686-4.685C125.587,133.895,127.686,131.797,130.272,131.797z M76.39,72.552h17.188    c2.588,0,4.686,2.097,4.686,4.685c0,2.588-2.098,4.686-4.686,4.686H76.39c-2.587,0-4.686-2.097-4.686-4.686    C71.704,74.649,73.803,72.552,76.39,72.552z M76.39,102.174h17.188c2.588,0,4.686,2.098,4.686,4.686s-2.098,4.686-4.686,4.686    H76.39c-2.587,0-4.686-2.098-4.686-4.686S73.803,102.174,76.39,102.174z M76.39,131.797h17.188c2.588,0,4.686,2.097,4.686,4.686    c0,2.588-2.098,4.685-4.686,4.685H76.39c-2.587,0-4.686-2.097-4.686-4.685C71.704,133.895,73.803,131.797,76.39,131.797z     M428.955,81.304L69.737,286.879c-0.734,0.421-1.534,0.62-2.322,0.62c-1.625,0-3.206-0.848-4.071-2.359    c-1.285-2.246-0.506-5.108,1.739-6.394L424.301,73.17c2.247-1.286,5.109-0.505,6.395,1.739    C431.98,77.156,431.201,80.018,428.955,81.304z"/><polygon points="260.685,256.001 260.685,465.83 305.195,465.83 305.195,224.934 260.685,224.934   "/></g></g><g id="Layer_1"/></svg>