<?xml version="1.0" ?><svg height="16px" version="1.1" viewBox="0 0 16 16" width="16px" xmlns="http://www.w3.org/2000/svg" xmlns:sketch="http://www.bohemiancoding.com/sketch/ns" xmlns:xlink="http://www.w3.org/1999/xlink"><title/><defs/><g fill="none" fill-rule="evenodd" id="Icons with numbers" stroke="none" stroke-width="1"><g fill="#000000" id="Group" transform="translate(-624.000000, -96.000000)"><path d="M627,99 C627,97.8954305 627.895431,97 629,97 L635,97 C636.104569,97 637,97.8954305 637,99 L637.975598,107.780386 C637.874271,107.333803 637.469839,107 636.997527,107 L627.002473,107 C626.448823,107 626,107.44266 626,107.998957 L626,108 L625.984619,108 Z M627.495545,108 C626.669578,108 626,108.665797 626,109.5 L626,109.5 C626,110.328427 626.679554,111 627.495545,111 L636.504455,111 C637.330422,111 638,110.334203 638,109.5 L638,109.5 C638,108.671573 637.320446,108 636.504455,108 L627.495545,108 Z M628,109 L628,110 L636,110 L636,109 L628,109 Z M628,109" id="Rectangle 222 copy"/></g></g></svg>