<?xml version="1.0" ?><svg enable-background="new 0 0 52 52" id="Layer_1" version="1.1" viewBox="0 0 52 52" xml:space="preserve" xmlns="http://www.w3.org/2000/svg" xmlns:xlink="http://www.w3.org/1999/xlink"><g><rect height="28" width="28" x="12" y="11.9963379"/><rect height="4" width="2" x="38" y="6"/><rect height="7" width="2" x="33" y="3"/><rect height="4" width="2" x="28" y="6"/><rect height="7" width="2" x="23" y="3"/><rect height="4" width="2" x="18" y="6"/><rect height="7" width="2" x="13" y="3"/><rect height="2" width="4" x="42" y="12"/><rect height="2" width="7" x="42" y="17"/><rect height="2" width="4" x="42" y="22"/><rect height="2" width="7" x="42" y="27"/><rect height="2" width="4" x="42" y="32"/><rect height="2" width="7" x="42" y="37"/><rect height="4" width="2" x="12" y="42"/><rect height="7" width="2" x="17" y="42"/><rect height="4" width="2" x="22" y="42"/><rect height="7" width="2" x="27" y="42"/><rect height="4" width="2" x="32" y="42"/><rect height="7" width="2" x="37" y="42"/><rect height="2" width="4" x="6" y="38"/><rect height="2" width="7" x="3" y="33"/><rect height="2" width="4" x="6" y="28"/><rect height="2" width="7" x="3" y="23"/><rect height="2" width="4" x="6" y="18"/><rect height="2" width="7" x="3" y="13"/></g></svg>