<?xml version="1.0" ?><svg height="24px" version="1.1" viewBox="0 0 24 24" width="24px" xmlns="http://www.w3.org/2000/svg" xmlns:sketch="http://www.bohemiancoding.com/sketch/ns" xmlns:xlink="http://www.w3.org/1999/xlink"><title/><desc/><defs/><g fill="none" fill-rule="evenodd" id="miu" stroke="none" stroke-width="1"><g id="Artboard-1" transform="translate(-539.000000, -587.000000)"><g id="slice" transform="translate(215.000000, 119.000000)"/><path d="M541,603 L541,593 C541,591 543,591 543,591 L559,591 C559,591 561,591 561,593 L561,603 L541,603 Z M540.970979,604 C540.970979,604 540,604 540,605 C540.000001,606 540.970979,606 540.970979,606 L560.996814,606 C560.996814,606 562,606 562,605 C562,604 560.996814,604 560.996814,604 L540.970979,604 L540.970979,604 Z M549,604.5 C549,604.5 548.5,604.5 548.5,605 C548.5,605.5 549,605.5 549,605.5 L553,605.5 C553,605.5 553.5,605.5 553.5,605 C553.5,604.5 553,604.5 553,604.5 L549,604.5 L549,604.5 Z" fill="#000000" id="device-laptop-computer-glyph"/></g></g></svg>