<?xml version="1.0" ?><svg data-name="Layer 1" id="Layer_1" viewBox="0 0 64 64" xmlns="http://www.w3.org/2000/svg"><polygon points="6.708 42 4.699 46 16.37 46 18.379 42 6.708 42"/><polygon points="45.382 4 29.618 4 26.618 10 42.382 10 45.382 4"/><polygon points="44 24.288 46 19.788 46 7.236 44 11.236 44 24.288"/><rect height="12" width="12" x="4" y="48"/><polygon points="18 56.104 19 53.864 19 45.22 18 47.211 18 56.104"/><polygon points="59 56.104 60 53.864 60 45.22 59 47.211 59 56.104"/><path d="M8,24H25a2.966,2.966,0,0,0,1-.184V28H42V12H26v6.185A2.956,2.956,0,0,0,25.039,18l-1.069.089a.985.985,0,0,1-1.057-.77A2.945,2.945,0,0,0,19,15.187,1,1,0,0,1,17.73,14.6a3.982,3.982,0,0,0-7.658.708,1,1,0,0,1-1.2.8A3.9,3.9,0,0,0,8,16a4,4,0,0,0,0,8Z"/><polygon points="47.708 42 45.699 46 57.37 46 59.379 42 47.708 42"/><rect height="12" width="12" x="45" y="48"/><path d="M61,13.991a4,4,0,0,0-4-4l-1.113.093a3.945,3.945,0,0,0-5.221-2.848A5.03,5.03,0,0,0,49,5V17.991h8A4,4,0,0,0,61,13.991Z"/><path d="M46,44V42H35.858A4,4,0,0,0,33,39.142V29H31V39.142A4,4,0,0,0,28.142,42H20v2h8.142a3.981,3.981,0,0,0,7.716,0Z"/></svg>