<?xml version="1.0" encoding="UTF-8" standalone="yes"?>
<svg xmlns="http://www.w3.org/2000/svg" viewBox="0 0 50 50" width="50" height="50" fill="#000000">
  <path d="M41,4H9C6.24,4,4,6.24,4,9v32c0,2.76,2.24,5,5,5h32c2.76,0,5-2.24,5-5V9C46,6.24,43.76,4,41,4z M22,36h-9.59l3.3,3.29 c0.39,0.39,0.39,1.03,0,1.42C15.51,40.9,15.26,41,15,41s-0.51-0.1-0.71-0.29l-5-5c-0.39-0.39-0.39-1.03,0-1.42l5-5 c0.39-0.39,1.03-0.39,1.42,0c0.39,0.39,0.39,1.03,0,1.42L12.41,34H22c0.55,0,1,0.45,1,1S22.55,36,22,36z M22,19h-9.59l3.3,3.29 c0.39,0.39,0.39,1.03,0,1.42C15.51,23.9,15.26,24,15,24s-0.51-0.1-0.71-0.29l-5-5c-0.39-0.39-0.39-1.03,0-1.42l5-5 c0.39-0.39,1.03-0.39,1.42,0c0.39,0.39,0.39,1.03,0,1.42L12.41,17H22c0.55,0,1,0.45,1,1S22.55,19,22,19z M40.71,32.71l-5,5 C35.51,37.9,35.26,38,35,38s-0.51-0.1-0.71-0.29c-0.39-0.39-0.39-1.03,0-1.42l3.3-3.29H28c-0.55,0-1-0.45-1-1s0.45-1,1-1h9.59 l-3.3-3.29c-0.39-0.39-0.39-1.03,0-1.42c0.39-0.39,1.03-0.39,1.42,0l5,5C41.1,31.68,41.1,32.32,40.71,32.71z M40.71,15.71l-5,5 C35.51,20.9,35.26,21,35,21s-0.51-0.1-0.71-0.29c-0.39-0.39-0.39-1.03,0-1.42l3.3-3.29H28c-0.55,0-1-0.45-1-1s0.45-1,1-1h9.59 l-3.3-3.29c-0.39-0.39-0.39-1.03,0-1.42c0.39-0.39,1.03-0.39,1.42,0l5,5C41.1,14.68,41.1,15.32,40.71,15.71z"/>
</svg>
