<?xml version="1.0" standalone="no"?>
<!DOCTYPE svg PUBLIC "-//W3C//DTD SVG 20010904//EN"
 "http://www.w3.org/TR/2001/REC-SVG-20010904/DTD/svg10.dtd">
<svg version="1.0" xmlns="http://www.w3.org/2000/svg"
 width="48.000000pt" height="48.000000pt" viewBox="0 0 48.000000 48.000000"
 preserveAspectRatio="xMidYMid meet">

<g transform="translate(0.000000,48.000000) scale(0.100000,-0.100000)"
fill="#000000" stroke="none">
<path d="M0 240 l0 -240 240 0 240 0 0 240 0 240 -240 0 -240 0 0 -240z m210
150 l0 -29 118 -3 117 -3 0 -115 0 -115 -72 -3 c-56 -2 -73 -6 -73 -17 0 -8 7
-15 15 -15 8 0 15 -7 15 -15 0 -11 -12 -15 -45 -15 -33 0 -45 4 -45 15 0 8 5
15 10 15 6 0 10 7 10 15 0 9 -9 15 -25 15 -21 0 -25 -5 -25 -30 l0 -30 -90 0
-90 0 0 180 0 180 90 0 90 0 0 -30z"/>
<path d="M60 240 l0 -150 60 0 60 0 0 150 0 150 -60 0 -60 0 0 -150z m90 105
c0 -10 -10 -15 -30 -15 -20 0 -30 5 -30 15 0 10 10 15 30 15 20 0 30 -5 30
-15z m0 -60 c0 -10 -10 -15 -30 -15 -20 0 -30 5 -30 15 0 10 10 15 30 15 20 0
30 -5 30 -15z"/>
<path d="M210 240 l0 -90 93 0 c59 0 97 4 105 12 16 16 16 140 0 156 -8 8 -46
12 -105 12 l-93 0 0 -90z"/>
</g>
</svg>
